<?xml version="1.0" encoding="UTF-8"?><svg id="uuid-98b190f3-59b9-4425-a870-b21b92aee297" xmlns="http://www.w3.org/2000/svg" viewBox="0 0 172.68 48">
<title>noon logo - Brandlogos.net</title><path d="M161.71,9.68c-3.07,0-5.85,1-7.99,2.83l-.62-2.18h-5.41v27.37h6.88v-14.87c0-3.17,2.12-6.37,6.17-6.37,3.17,0,5.06,2.23,5.06,5.97v15.28h6.88v-15.79c0-7.44-4.31-12.25-10.98-12.25ZM106.71,24c0,4.37-2.85,7.54-6.78,7.54s-6.78-3.17-6.78-7.54,2.85-7.54,6.78-7.54,6.78,3.17,6.78,7.54ZM99.93,9.68c-7.72,0-13.76,6.29-13.76,14.32s6.04,14.32,13.76,14.32,13.76-6.29,13.76-14.32-6.04-14.32-13.76-14.32ZM136.78,24c0,4.37-2.85,7.54-6.78,7.54s-6.78-3.17-6.78-7.54,2.85-7.54,6.78-7.54,6.78,3.17,6.78,7.54ZM130,9.68c-7.72,0-13.76,6.29-13.76,14.32s6.04,14.32,13.76,14.32,13.76-6.29,13.76-14.32-6.04-14.32-13.76-14.32ZM71.26,9.68c-3.06,0-5.85,1-7.99,2.83l-.62-2.18h-5.41v27.37h6.88v-14.87c0-3.17,2.12-6.37,6.17-6.37,3.17,0,5.06,2.23,5.06,5.97v15.28h6.88v-15.79c0-7.44-4.31-12.25-10.98-12.25Z" style="fill:#404553;"/><path d="M0,25.14c0,12.87,10.94,22.86,23.65,22.86s24.1-10.74,24.1-23.85c0-7.67-3.71-14.4-9.2-18.9l-4.01,6.93c3.31,2.82,5.59,7.17,5.59,12.07,0,8.9-7.37,16.23-16.48,16.23S7.22,33.16,7.22,24c0-1.09.1-2.18.3-3.22L0,25.14ZM31.07,1.19c-2.28-.84-4.3-1.19-6.33-1.19-1.53,0-2.87.2-3.86.4l-5.15,8.9c1.88-1.09,4.3-1.68,6.93-1.68,1.53,0,2.92.2,4.35.59l4.06-7.02Z" style="fill:#404553;"/></svg>