<svg xmlns="http://www.w3.org/2000/svg" width="757" height="270" fill="none" viewBox="0 0 757 170"><g clip-path="url(#a)"><path fill="#62cb68" d="m98.003 3.589.244-.85h.513q.312 0 .43.074.234.15.234.434a.5.5 0 0 1-.127.347.42.42 0 0 1-.298.146q-.122.523-.308.835.396 0 .508.073.24.147.24.43a.47.47 0 0 1-.157.361q-.15.137-.513.137h-.595l-.117-.156a1.4 1.4 0 0 1-.42.215 2.6 2.6 0 0 1-.723.088q-.884 0-1.372-.45a1.5 1.5 0 0 1-.483-1.147q0-.474.239-.903.244-.435.742-.728a3.3 3.3 0 0 1-.283-.552 1.4 1.4 0 0 1-.064-.424q0-.606.46-1.06a1.49 1.49 0 0 1 1.43-.415q.176.039.361.127a.7.7 0 0 1 .264-.078q.205 0 .352.151a.48.48 0 0 1 .146.352.46.46 0 0 1-.083.283q-.079.107-.322.24l-.42.224a2 2 0 0 0-.386-.288.6.6 0 0 0-.259-.054.52.52 0 0 0-.385.156.48.48 0 0 0-.157.352q0 .17.288.59zm-1.387-.254q-.555.259-.556.786 0 .279.19.44t.664.16q.302 0 .557-.146zM104.009 3.589l.244-.85h.513q.312 0 .429.074.235.15.235.434a.5.5 0 0 1-.127.347.42.42 0 0 1-.298.146q-.122.523-.308.835.396 0 .508.073.24.147.239.43a.47.47 0 0 1-.156.361q-.151.137-.513.137h-.595l-.118-.156a1.4 1.4 0 0 1-.419.215q-.298.087-.723.088-.884 0-1.372-.45a1.5 1.5 0 0 1-.484-1.147q0-.474.24-.903.244-.435.742-.728a3.3 3.3 0 0 1-.283-.552 1.4 1.4 0 0 1-.064-.424q0-.606.459-1.06a1.49 1.49 0 0 1 1.431-.415q.175.039.361.127a.7.7 0 0 1 .264-.078.47.47 0 0 1 .351.151.48.48 0 0 1 .147.352.47.47 0 0 1-.083.283q-.079.107-.322.24l-.42.224a2 2 0 0 0-.386-.288.6.6 0 0 0-.259-.054.53.53 0 0 0-.386.156.48.48 0 0 0-.156.352q0 .17.288.59zm-1.387-.254q-.557.259-.557.786 0 .279.191.44.19.16.664.16.302 0 .557-.146zM110.015 3.589l.244-.85h.512q.313 0 .43.074.235.15.235.434a.5.5 0 0 1-.127.347.42.42 0 0 1-.298.146q-.122.523-.308.835.396 0 .508.073.239.147.239.43a.47.47 0 0 1-.156.361q-.151.137-.513.137h-.595l-.118-.156a1.4 1.4 0 0 1-.42.215 2.6 2.6 0 0 1-.722.088q-.884 0-1.372-.45a1.5 1.5 0 0 1-.484-1.147q0-.474.24-.903.243-.435.742-.728a3.3 3.3 0 0 1-.283-.552 1.4 1.4 0 0 1-.064-.424q0-.606.459-1.06a1.49 1.49 0 0 1 1.431-.415q.175.039.361.127a.7.7 0 0 1 .264-.078.47.47 0 0 1 .351.151.48.48 0 0 1 .147.352.47.47 0 0 1-.083.283q-.078.107-.323.24l-.419.224a2 2 0 0 0-.386-.288.6.6 0 0 0-.259-.054.52.52 0 0 0-.386.156.48.48 0 0 0-.156.352q0 .17.288.59zm-1.387-.254q-.557.259-.557.786 0 .279.191.44.19.16.664.16.303 0 .556-.146zM122.026 3.589l.245-.85h.512q.313 0 .43.074.234.15.234.434a.5.5 0 0 1-.127.347.42.42 0 0 1-.298.146q-.121.523-.307.835.396 0 .508.073.239.147.239.43a.47.47 0 0 1-.156.361q-.151.137-.513.137h-.596l-.117-.156a1.4 1.4 0 0 1-.42.215 2.6 2.6 0 0 1-.722.088q-.885 0-1.373-.45a1.5 1.5 0 0 1-.483-1.147q0-.474.239-.903.244-.435.742-.728a3.4 3.4 0 0 1-.283-.552 1.4 1.4 0 0 1-.063-.424q0-.606.459-1.06a1.49 1.49 0 0 1 1.43-.415q.177.039.362.127a.7.7 0 0 1 .263-.078q.205 0 .352.151a.48.48 0 0 1 .146.352.46.46 0 0 1-.083.283q-.078.107-.322.24l-.42.224a2 2 0 0 0-.385-.288.6.6 0 0 0-.259-.054.52.52 0 0 0-.386.156.48.48 0 0 0-.156.352q0 .17.288.59zm-1.386-.254q-.557.259-.557.786 0 .279.19.44t.665.16q.302 0 .556-.146zM128.032 3.589l.244-.85h.513q.313 0 .43.074.234.15.234.434a.5.5 0 0 1-.127.347.42.42 0 0 1-.298.146 3 3 0 0 1-.307.835q.395 0 .508.073.239.147.239.43a.47.47 0 0 1-.156.361q-.151.137-.513.137h-.596l-.117-.156a1.4 1.4 0 0 1-.42.215 2.6 2.6 0 0 1-.723.088q-.883 0-1.372-.45a1.5 1.5 0 0 1-.483-1.147q0-.474.239-.903.244-.435.742-.728a3.4 3.4 0 0 1-.283-.552 1.4 1.4 0 0 1-.063-.424q0-.606.459-1.06a1.49 1.49 0 0 1 1.43-.415q.176.039.362.127a.7.7 0 0 1 .263-.078q.205 0 .352.151a.48.48 0 0 1 .146.352.46.46 0 0 1-.083.283q-.078.107-.322.24l-.42.224a2 2 0 0 0-.386-.288.6.6 0 0 0-.258-.054.52.52 0 0 0-.386.156.48.48 0 0 0-.156.352q0 .17.288.59zm-1.386-.254q-.558.259-.557.786 0 .279.19.44.191.16.664.16.303 0 .557-.146zM146.05 3.589l.244-.85h.513q.312 0 .429.074.235.15.235.434a.5.5 0 0 1-.127.347.42.42 0 0 1-.298.146q-.122.523-.308.835.396 0 .508.073.24.147.239.43a.47.47 0 0 1-.156.361q-.151.137-.513.137h-.595l-.117-.156a1.4 1.4 0 0 1-.42.215q-.299.087-.723.088-.884 0-1.372-.45a1.5 1.5 0 0 1-.484-1.147q0-.474.24-.903.244-.435.742-.728a3.3 3.3 0 0 1-.283-.552 1.4 1.4 0 0 1-.064-.424q0-.606.459-1.06a1.49 1.49 0 0 1 1.431-.415q.176.039.361.127a.7.7 0 0 1 .264-.078.47.47 0 0 1 .351.151.48.48 0 0 1 .147.352.47.47 0 0 1-.083.283q-.078.107-.322.24l-.42.224a2 2 0 0 0-.386-.288.6.6 0 0 0-.259-.054.53.53 0 0 0-.386.156.48.48 0 0 0-.156.352q0 .17.288.59zm-1.387-.254q-.557.259-.557.786 0 .279.191.44.19.16.664.16.303 0 .557-.146zM158.062 3.589l.244-.85h.512q.313 0 .43.074.234.15.234.434a.5.5 0 0 1-.127.347.42.42 0 0 1-.297.146q-.123.523-.308.835.396 0 .508.073.239.147.239.43a.47.47 0 0 1-.156.361q-.151.137-.513.137h-.596l-.117-.156a1.4 1.4 0 0 1-.42.215 2.6 2.6 0 0 1-.722.088q-.885 0-1.372-.45a1.5 1.5 0 0 1-.484-1.147q0-.474.239-.903.245-.435.743-.728a3.3 3.3 0 0 1-.284-.552 1.4 1.4 0 0 1-.063-.424q0-.606.459-1.06a1.49 1.49 0 0 1 1.431-.415q.175.039.361.127a.7.7 0 0 1 .264-.078.47.47 0 0 1 .351.151.48.48 0 0 1 .147.352.47.47 0 0 1-.083.283q-.078.107-.323.24l-.42.224a2 2 0 0 0-.385-.288.6.6 0 0 0-.259-.054.52.52 0 0 0-.386.156.48.48 0 0 0-.156.352q0 .17.288.59zm-1.387-.254q-.557.259-.557.786 0 .279.191.44.19.16.664.16.302 0 .556-.146zM164.067 3.589l.245-.85h.512q.313 0 .43.074.234.15.234.434a.5.5 0 0 1-.127.347.42.42 0 0 1-.298.146q-.121.523-.307.835.396 0 .508.073.239.147.239.43a.47.47 0 0 1-.156.361q-.151.137-.513.137h-.596l-.117-.156a1.4 1.4 0 0 1-.42.215 2.6 2.6 0 0 1-.722.088q-.885 0-1.373-.45a1.5 1.5 0 0 1-.483-1.147q0-.474.239-.903.244-.435.742-.728a3.4 3.4 0 0 1-.283-.552 1.4 1.4 0 0 1-.063-.424q0-.606.459-1.06a1.49 1.49 0 0 1 1.43-.415q.176.039.362.127a.7.7 0 0 1 .263-.078q.205 0 .352.151a.48.48 0 0 1 .147.352.47.47 0 0 1-.083.283q-.079.107-.323.24l-.42.224a2 2 0 0 0-.385-.288.6.6 0 0 0-.259-.054.52.52 0 0 0-.386.156.48.48 0 0 0-.156.352q0 .17.288.59zm-1.386-.254q-.557.259-.557.786 0 .279.19.44t.665.16q.302 0 .556-.146zM73.98 18.589l.244-.85h.512q.313 0 .43.073.234.151.234.435a.5.5 0 0 1-.127.347.42.42 0 0 1-.297.146q-.122.523-.308.835.396 0 .508.073.24.147.239.43a.47.47 0 0 1-.156.361q-.152.138-.513.137h-.596l-.117-.156a1.4 1.4 0 0 1-.42.215 2.6 2.6 0 0 1-.722.088q-.885 0-1.372-.45a1.5 1.5 0 0 1-.484-1.147q0-.474.24-.903.243-.435.742-.728a3.3 3.3 0 0 1-.284-.552 1.4 1.4 0 0 1-.063-.424q0-.606.459-1.06a1.49 1.49 0 0 1 1.43-.415q.177.039.362.127a.7.7 0 0 1 .264-.078q.205 0 .351.151a.48.48 0 0 1 .147.352.46.46 0 0 1-.083.283q-.078.107-.323.24l-.42.224a2 2 0 0 0-.385-.288.6.6 0 0 0-.26-.054.52.52 0 0 0-.385.156.48.48 0 0 0-.156.352q0 .17.288.59zm-1.387-.254q-.557.258-.557.786 0 .279.19.44t.665.16q.302 0 .556-.146zM79.985 18.589l.245-.85h.512q.313 0 .43.073.234.151.234.435a.5.5 0 0 1-.127.347.42.42 0 0 1-.298.146q-.12.523-.307.835.395 0 .508.073.24.147.239.43a.47.47 0 0 1-.156.361q-.151.138-.513.137h-.596l-.117-.156a1.4 1.4 0 0 1-.42.215q-.298.087-.722.088-.885 0-1.373-.45a1.5 1.5 0 0 1-.483-1.147q0-.474.24-.903.244-.435.741-.728a3.3 3.3 0 0 1-.283-.552 1.4 1.4 0 0 1-.063-.424q0-.606.459-1.06a1.49 1.49 0 0 1 1.43-.415q.176.039.362.127a.7.7 0 0 1 .263-.078q.205 0 .352.151a.48.48 0 0 1 .147.352.46.46 0 0 1-.083.283q-.079.107-.323.24l-.42.224a2 2 0 0 0-.385-.288.6.6 0 0 0-.26-.054.52.52 0 0 0-.385.156.48.48 0 0 0-.156.352q0 .17.288.59zm-1.386-.254q-.557.258-.557.786 0 .279.19.44t.665.16q.302 0 .556-.146zM91.997 18.589l.244-.85h.513q.313 0 .43.073.234.151.234.435a.5.5 0 0 1-.127.347.42.42 0 0 1-.298.146q-.122.523-.307.835.395 0 .507.073.24.147.24.43a.47.47 0 0 1-.157.361q-.15.138-.512.137h-.596l-.117-.156a1.4 1.4 0 0 1-.42.215 2.6 2.6 0 0 1-.723.088q-.883 0-1.372-.45a1.5 1.5 0 0 1-.483-1.147q0-.474.239-.903.244-.435.742-.728a3.3 3.3 0 0 1-.283-.552 1.4 1.4 0 0 1-.064-.424q0-.606.46-1.06a1.49 1.49 0 0 1 1.43-.415q.176.039.362.127a.7.7 0 0 1 .263-.078q.205 0 .352.151a.48.48 0 0 1 .146.352.46.46 0 0 1-.083.283q-.079.107-.322.24l-.42.224a2 2 0 0 0-.386-.288.6.6 0 0 0-.258-.054.52.52 0 0 0-.386.156.48.48 0 0 0-.156.352q0 .17.288.59zm-1.387-.254q-.555.258-.556.786 0 .279.19.44t.664.16q.303 0 .557-.146zM95.815 13.955l3.213 6.885q.025.054.083.249.03.113.03.17 0 .176-.142.308a.47.47 0 0 1-.342.132.48.48 0 0 1-.302-.088q-.113-.087-.235-.341l-3.208-6.89q-.122-.259-.122-.386 0-.186.146-.332a.5.5 0 0 1 .352-.146q.18 0 .293.088.112.087.234.351M105.029 14.375l-3.208 6.914q-.122.26-.219.337a.48.48 0 0 1-.308.102.5.5 0 0 1-.356-.146.46.46 0 0 1-.147-.332q0-.132.117-.386l3.218-6.909q.122-.258.215-.337a.5.5 0 0 1 .307-.102.48.48 0 0 1 .352.146.44.44 0 0 1 .146.327q0 .132-.117.386M110.015 18.589l.244-.85h.512q.313 0 .43.073.235.151.235.435a.5.5 0 0 1-.127.347.42.42 0 0 1-.298.146q-.122.523-.308.835.396 0 .508.073.239.147.239.43a.47.47 0 0 1-.156.361q-.151.138-.513.137h-.595l-.118-.156a1.4 1.4 0 0 1-.42.215 2.6 2.6 0 0 1-.722.088q-.884 0-1.372-.45a1.5 1.5 0 0 1-.484-1.147q0-.474.24-.903.243-.435.742-.728a3.3 3.3 0 0 1-.283-.552 1.4 1.4 0 0 1-.064-.424q0-.606.459-1.06a1.49 1.49 0 0 1 1.431-.415q.175.039.361.127a.7.7 0 0 1 .264-.078.47.47 0 0 1 .351.151.48.48 0 0 1 .147.352.47.47 0 0 1-.083.283q-.078.107-.323.24l-.419.224a2 2 0 0 0-.386-.288.6.6 0 0 0-.259-.054.53.53 0 0 0-.386.156.48.48 0 0 0-.156.352q0 .17.288.59zm-1.387-.254q-.557.258-.557.786 0 .279.191.44.19.16.664.16.303 0 .556-.146zM113.833 13.955l3.213 6.885q.024.054.083.249a.8.8 0 0 1 .029.17q0 .176-.141.308a.47.47 0 0 1-.342.132.48.48 0 0 1-.303-.088q-.113-.087-.234-.341l-3.208-6.89q-.122-.259-.122-.386 0-.186.146-.332a.5.5 0 0 1 .352-.146q.18 0 .293.088.113.087.234.351M121.489 15.22v5.957q0 .513-.024.61a.46.46 0 0 1-.176.25.498.498 0 0 1-.605 0 .46.46 0 0 1-.171-.26q-.025-.087-.025-.6V15.22q0-.513.025-.61a.498.498 0 0 1 .776-.249q.137.102.176.253.024.098.024.606M128.032 18.589l.244-.85h.513q.313 0 .43.073.234.151.234.435a.5.5 0 0 1-.127.347.42.42 0 0 1-.298.146 3 3 0 0 1-.307.835q.395 0 .508.073.239.147.239.43a.47.47 0 0 1-.156.361q-.151.138-.513.137h-.596l-.117-.156a1.4 1.4 0 0 1-.42.215 2.6 2.6 0 0 1-.723.088q-.883 0-1.372-.45a1.5 1.5 0 0 1-.483-1.147q0-.474.239-.903.244-.435.742-.728a3.4 3.4 0 0 1-.283-.552 1.4 1.4 0 0 1-.063-.424q0-.606.459-1.06a1.49 1.49 0 0 1 1.43-.415q.176.039.362.127a.7.7 0 0 1 .263-.078q.205 0 .352.151a.48.48 0 0 1 .146.352.46.46 0 0 1-.083.283q-.078.107-.322.24l-.42.224a2 2 0 0 0-.386-.288.6.6 0 0 0-.258-.054.53.53 0 0 0-.386.156.48.48 0 0 0-.156.352q0 .17.288.59zm-1.386-.254q-.558.258-.557.786 0 .279.19.44.191.16.664.16.303 0 .557-.146zM138.643 18.145q0-.855.283-1.729.21-.645.649-1.436.318-.566.469-.693a.5.5 0 0 1 .337-.132.5.5 0 0 1 .361.147.48.48 0 0 1 .147.351.7.7 0 0 1-.118.337 7.7 7.7 0 0 0-.771 1.621 5.04 5.04 0 0 0 0 3.072q.245.756.771 1.62a.66.66 0 0 1 .118.338.48.48 0 0 1-.147.351.5.5 0 0 1-.361.147.48.48 0 0 1-.318-.117q-.195-.171-.517-.767-.464-.864-.635-1.426a5.6 5.6 0 0 1-.268-1.684M145.435 18.145q0 .855-.284 1.733-.21.645-.649 1.43-.318.566-.469.699a.5.5 0 0 1-.337.132.5.5 0 0 1-.361-.147.48.48 0 0 1-.147-.351q0-.147.118-.337.527-.864.766-1.621a4.97 4.97 0 0 0 0-3.072q-.239-.757-.766-1.62a.7.7 0 0 1-.118-.338q0-.205.147-.351a.5.5 0 0 1 .361-.147q.181 0 .318.118.195.165.517.766.464.864.635 1.421.269.864.269 1.685M151.519 15.22v5.957q0 .513-.025.61a.45.45 0 0 1-.176.25.5.5 0 0 1-.605 0 .46.46 0 0 1-.171-.26q-.024-.087-.024-.6V15.22q0-.513.024-.61a.46.46 0 0 1 .171-.25.5.5 0 0 1 .781.254q.024.098.025.606M159.082 14.375l-3.208 6.914q-.122.26-.22.337a.47.47 0 0 1-.307.102.5.5 0 0 1-.357-.146.46.46 0 0 1-.146-.332q0-.132.117-.386l3.218-6.909q.122-.258.215-.337a.48.48 0 0 1 .307-.102.48.48 0 0 1 .352.146.44.44 0 0 1 .146.327q0 .132-.117.386M170.054 16.21v-.307q0-.482-.283-.776a.95.95 0 0 0-.718-.293q-.352 0-.664.234-.308.23-.464.596a3.3 3.3 0 0 0-.279 1.299v1.484q0 1.129.508 1.792.333.435.928.435.317 0 .581-.083a1 1 0 0 0 .415-.23q.147-.146.269-.146.161 0 .268.112a.36.36 0 0 1 .108.269q0 .244-.337.478-.489.333-1.333.332-.645 0-1.065-.293-.541-.38-.81-1.123a4.3 4.3 0 0 1-.269-1.474v-1.607q0-1.171.581-1.992.582-.82 1.548-.82.435 0 .82.18.386.18.66.63.273.45.273.996v2.671a.34.34 0 0 1 .215.327.36.36 0 0 1-.117.279q-.117.102-.396.102h-.439v-.03a3 3 0 0 1-.337.035q-.587 0-1.026-.434a1.4 1.4 0 0 1-.434-1.021q0-.625.478-1.094.484-.473 1.319-.527m0 .758q-.518.048-.791.302-.274.25-.274.572 0 .278.225.483.23.205.6.205.073 0 .24-.014zM174.8 19.229h1.338l-1.441 2.714q-.126.24-.317.24a.32.32 0 0 1-.22-.083.25.25 0 0 1-.088-.186 1 1 0 0 1 .034-.2zM188.091 18.589l.244-.85h.513q.312 0 .429.073.235.151.235.435a.5.5 0 0 1-.127.347.42.42 0 0 1-.298.146q-.122.523-.308.835.396 0 .508.073.24.147.239.43a.47.47 0 0 1-.156.361q-.151.138-.513.137h-.595l-.117-.156a1.4 1.4 0 0 1-.42.215q-.298.087-.723.088-.884 0-1.372-.45a1.5 1.5 0 0 1-.484-1.147q0-.474.24-.903.244-.435.742-.728a3.3 3.3 0 0 1-.283-.552 1.4 1.4 0 0 1-.064-.424q0-.606.459-1.06a1.49 1.49 0 0 1 1.431-.415q.176.039.361.127a.7.7 0 0 1 .264-.078.47.47 0 0 1 .351.151.48.48 0 0 1 .147.352.47.47 0 0 1-.083.283q-.078.107-.322.24l-.42.224a2 2 0 0 0-.386-.288.6.6 0 0 0-.259-.054.53.53 0 0 0-.386.156.48.48 0 0 0-.156.352q0 .17.288.59zm-1.387-.254q-.557.258-.557.786 0 .279.191.44.19.16.664.16.303 0 .557-.146zM194.097 18.589l.244-.85h.513q.312 0 .429.073.234.151.235.435a.5.5 0 0 1-.127.347.42.42 0 0 1-.298.146q-.122.523-.308.835.396 0 .508.073.239.147.239.43a.47.47 0 0 1-.156.361q-.151.138-.513.137h-.595l-.118-.156a1.4 1.4 0 0 1-.42.215 2.6 2.6 0 0 1-.722.088q-.884 0-1.372-.45a1.5 1.5 0 0 1-.484-1.147q0-.474.24-.903.243-.435.742-.728a3.3 3.3 0 0 1-.283-.552 1.4 1.4 0 0 1-.064-.424q0-.606.459-1.06a1.49 1.49 0 0 1 1.431-.415q.175.039.361.127a.7.7 0 0 1 .264-.078.47.47 0 0 1 .351.151.48.48 0 0 1 .147.352.47.47 0 0 1-.083.283q-.078.107-.322.24l-.42.224a2 2 0 0 0-.386-.288.6.6 0 0 0-.259-.054.53.53 0 0 0-.386.156.48.48 0 0 0-.156.352q0 .17.288.59zm-1.387-.254q-.557.258-.557.786 0 .279.191.44.19.16.664.16.303 0 .556-.146zM73.98 33.589l.244-.85h.512q.313 0 .43.074.234.15.234.434a.5.5 0 0 1-.127.347.42.42 0 0 1-.297.146q-.122.523-.308.835.396 0 .508.073.24.147.239.43a.47.47 0 0 1-.156.361q-.152.137-.513.137h-.596l-.117-.156a1.4 1.4 0 0 1-.42.215 2.6 2.6 0 0 1-.722.088q-.885 0-1.372-.45a1.5 1.5 0 0 1-.484-1.147q0-.474.24-.903.243-.435.742-.728a3.3 3.3 0 0 1-.284-.552 1.4 1.4 0 0 1-.063-.424q0-.606.459-1.06a1.49 1.49 0 0 1 1.43-.415q.177.039.362.127a.7.7 0 0 1 .264-.078q.205 0 .351.151a.48.48 0 0 1 .147.352.46.46 0 0 1-.083.283q-.078.107-.323.24l-.42.224a2 2 0 0 0-.385-.288.6.6 0 0 0-.26-.054.52.52 0 0 0-.385.156.48.48 0 0 0-.156.352q0 .17.288.59zm-1.387-.254q-.557.258-.557.786 0 .279.19.44t.665.16q.302 0 .556-.146zM77.798 28.955l3.213 6.885q.024.054.083.249a.7.7 0 0 1 .029.17q0 .177-.142.308a.47.47 0 0 1-.341.132.48.48 0 0 1-.303-.088q-.112-.087-.234-.341l-3.209-6.89q-.121-.259-.122-.386 0-.186.147-.332a.5.5 0 0 1 .352-.146q.18 0 .293.088.112.087.234.351M87.012 29.375l-3.208 6.914q-.123.26-.22.337a.47.47 0 0 1-.308.102.5.5 0 0 1-.356-.146.46.46 0 0 1-.147-.332q0-.132.118-.386l3.217-6.909q.123-.259.215-.337a.5.5 0 0 1 .308-.102.48.48 0 0 1 .351.146.44.44 0 0 1 .147.327q0 .132-.117.386M90.596 33.145q0-.855.283-1.729.21-.645.65-1.436.316-.566.468-.693a.5.5 0 0 1 .337-.132.5.5 0 0 1 .361.147.48.48 0 0 1 .147.351q0 .142-.117.337a7.7 7.7 0 0 0-.772 1.621 5.06 5.06 0 0 0 0 3.072q.244.756.772 1.62.117.191.117.338a.48.48 0 0 1-.147.351.5.5 0 0 1-.361.147.47.47 0 0 1-.317-.117q-.195-.171-.518-.767-.464-.864-.635-1.426a5.6 5.6 0 0 1-.268-1.684M99.023 29.375l-3.208 6.914q-.121.26-.22.337a.47.47 0 0 1-.307.102.5.5 0 0 1-.356-.146.46.46 0 0 1-.147-.332q0-.132.117-.386l3.218-6.909q.122-.259.215-.337a.5.5 0 0 1 .308-.102.48.48 0 0 1 .351.146.44.44 0 0 1 .147.327q0 .132-.118.386M104.009 33.589l.244-.85h.513q.312 0 .429.074.235.15.235.434a.5.5 0 0 1-.127.347.42.42 0 0 1-.298.146q-.122.523-.308.835.396 0 .508.073.24.147.239.43a.47.47 0 0 1-.156.361q-.151.137-.513.137h-.595l-.118-.156a1.4 1.4 0 0 1-.419.215q-.298.087-.723.088-.884 0-1.372-.45a1.5 1.5 0 0 1-.484-1.147q0-.474.24-.903.244-.435.742-.728a3.3 3.3 0 0 1-.283-.552 1.4 1.4 0 0 1-.064-.424q0-.606.459-1.06a1.49 1.49 0 0 1 1.431-.415q.175.039.361.127a.7.7 0 0 1 .264-.078.47.47 0 0 1 .351.151.48.48 0 0 1 .147.352.47.47 0 0 1-.083.283q-.079.107-.322.24l-.42.224a2 2 0 0 0-.386-.288.6.6 0 0 0-.259-.054.53.53 0 0 0-.386.156.48.48 0 0 0-.156.352q0 .17.288.59zm-1.387-.254q-.557.258-.557.786 0 .279.191.44.19.16.664.16.302 0 .557-.146zM111.035 29.375l-3.208 6.914q-.121.26-.22.337a.47.47 0 0 1-.307.102.5.5 0 0 1-.357-.146.46.46 0 0 1-.146-.332q0-.132.117-.386l3.218-6.909q.122-.259.215-.337a.5.5 0 0 1 .307-.102.48.48 0 0 1 .352.146.44.44 0 0 1 .146.327q0 .132-.117.386M116.021 33.589l.244-.85h.512q.313 0 .43.074.234.15.234.434a.5.5 0 0 1-.127.347.42.42 0 0 1-.297.146q-.122.523-.308.835.396 0 .508.073.239.147.239.43a.47.47 0 0 1-.156.361q-.152.137-.513.137h-.596l-.117-.156a1.4 1.4 0 0 1-.42.215 2.6 2.6 0 0 1-.722.088q-.885 0-1.372-.45a1.5 1.5 0 0 1-.484-1.147q0-.474.239-.903.245-.435.743-.728a3.3 3.3 0 0 1-.284-.552 1.4 1.4 0 0 1-.063-.424q0-.606.459-1.06a1.49 1.49 0 0 1 1.431-.415q.175.039.361.127a.7.7 0 0 1 .264-.078q.204 0 .351.151a.48.48 0 0 1 .147.352.47.47 0 0 1-.083.283q-.078.107-.323.24l-.42.224a2 2 0 0 0-.385-.288.6.6 0 0 0-.259-.054.53.53 0 0 0-.386.156.48.48 0 0 0-.156.352q0 .17.288.59zm-1.387-.254q-.557.258-.557.786 0 .279.191.44.19.16.664.16.302 0 .556-.146zM121.489 30.22v5.957q0 .513-.024.61a.46.46 0 0 1-.176.25.498.498 0 0 1-.605 0 .46.46 0 0 1-.171-.26q-.025-.087-.025-.6V30.22q0-.514.025-.61a.498.498 0 0 1 .776-.249q.137.102.176.253.024.098.024.606M127.495 30.22v5.957q0 .513-.024.61a.46.46 0 0 1-.176.25.502.502 0 0 1-.606 0 .47.47 0 0 1-.17-.26q-.025-.087-.025-.6V30.22q0-.514.025-.61a.47.47 0 0 1 .17-.25.5.5 0 0 1 .606 0q.137.103.176.254.024.098.024.606M135.059 29.375l-3.208 6.914q-.123.26-.22.337a.48.48 0 0 1-.308.102.5.5 0 0 1-.356-.146.46.46 0 0 1-.147-.332q0-.132.118-.386l3.217-6.909q.123-.259.215-.337a.5.5 0 0 1 .308-.102q.205 0 .351.146a.44.44 0 0 1 .147.327q0 .132-.117.386M140.044 33.589l.244-.85h.513q.312 0 .429.074.235.15.235.434a.5.5 0 0 1-.127.347.42.42 0 0 1-.298.146q-.122.523-.308.835.396 0 .508.073.24.147.239.43a.47.47 0 0 1-.156.361q-.152.137-.512.137h-.596l-.117-.156a1.4 1.4 0 0 1-.42.215q-.298.087-.723.088-.883 0-1.372-.45a1.5 1.5 0 0 1-.483-1.147q0-.474.239-.903.244-.435.742-.728a3.3 3.3 0 0 1-.283-.552 1.4 1.4 0 0 1-.064-.424q0-.606.459-1.06a1.49 1.49 0 0 1 1.431-.415q.176.039.361.127a.7.7 0 0 1 .264-.078q.205 0 .352.151a.48.48 0 0 1 .146.352.47.47 0 0 1-.083.283q-.078.107-.322.24l-.42.224a2 2 0 0 0-.386-.288.6.6 0 0 0-.259-.054.52.52 0 0 0-.385.156.47.47 0 0 0-.157.352q0 .17.288.59zm-1.387-.254q-.556.258-.556.786 0 .279.19.44t.664.16q.302 0 .557-.146zM153.076 29.375l-3.208 6.914q-.121.26-.22.337a.47.47 0 0 1-.307.102.5.5 0 0 1-.357-.146.46.46 0 0 1-.146-.332q0-.132.117-.386l3.218-6.909q.122-.259.215-.337a.5.5 0 0 1 .307-.102.48.48 0 0 1 .352.146.44.44 0 0 1 .146.327q0 .132-.117.386M159.79 38.58h-5.498q-.362 0-.513-.138a.46.46 0 0 1-.156-.36q0-.226.156-.367.151-.137.513-.137h5.498q.357 0 .508.137a.47.47 0 0 1 .156.366q0 .22-.151.356-.151.142-.513.142M165.088 29.375l-3.208 6.914q-.122.26-.22.337a.47.47 0 0 1-.307.102.5.5 0 0 1-.357-.146.46.46 0 0 1-.146-.332q0-.132.117-.386l3.218-6.909q.122-.259.214-.337a.5.5 0 0 1 .308-.102.48.48 0 0 1 .352.146.44.44 0 0 1 .146.327q0 .132-.117.386M169.458 33.145q0 .854-.283 1.733-.21.645-.65 1.43-.316.566-.468.699a.5.5 0 0 1-.337.132.5.5 0 0 1-.362-.147.48.48 0 0 1-.146-.351q0-.147.117-.337a7.5 7.5 0 0 0 .767-1.621 5 5 0 0 0 .244-1.538 5 5 0 0 0-.244-1.534 7.5 7.5 0 0 0-.767-1.62.7.7 0 0 1-.117-.338q0-.205.146-.351a.5.5 0 0 1 .362-.147q.18 0 .317.117.195.167.518.767.464.864.634 1.421.269.864.269 1.685M177.808 38.58h-5.498q-.362 0-.513-.138a.46.46 0 0 1-.156-.36q0-.226.156-.367.151-.137.513-.137h5.498q.356 0 .507.137a.47.47 0 0 1 .157.366.46.46 0 0 1-.152.356q-.151.142-.512.142M182.085 33.589l.244-.85h.513q.312 0 .429.074.235.15.235.434a.5.5 0 0 1-.127.347.42.42 0 0 1-.298.146q-.122.523-.308.835.396 0 .508.073.24.147.24.43a.47.47 0 0 1-.157.361q-.152.137-.512.137h-.596l-.117-.156a1.4 1.4 0 0 1-.42.215q-.298.087-.723.088-.883 0-1.372-.45a1.5 1.5 0 0 1-.483-1.147q0-.474.239-.903.244-.435.742-.728a3.3 3.3 0 0 1-.283-.552 1.4 1.4 0 0 1-.064-.424q0-.606.459-1.06a1.49 1.49 0 0 1 1.431-.415q.176.039.361.127a.7.7 0 0 1 .264-.078q.205 0 .352.151a.48.48 0 0 1 .146.352.47.47 0 0 1-.083.283q-.078.107-.322.24l-.42.224a2 2 0 0 0-.386-.288.6.6 0 0 0-.259-.054.52.52 0 0 0-.385.156.47.47 0 0 0-.157.352q0 .17.288.59zm-1.387-.254q-.556.258-.556.786 0 .279.19.44t.664.16q.303 0 .557-.146zM189.111 29.375l-3.208 6.914q-.121.26-.219.337a.48.48 0 0 1-.308.102.5.5 0 0 1-.356-.146.46.46 0 0 1-.147-.332q0-.132.117-.386l3.218-6.909q.122-.259.215-.337a.5.5 0 0 1 .307-.102.48.48 0 0 1 .352.146.44.44 0 0 1 .147.327q0 .132-.118.386M195.825 38.58h-5.498q-.362 0-.513-.138a.46.46 0 0 1-.156-.36q0-.226.156-.367.151-.137.513-.137h5.498q.357 0 .508.137a.47.47 0 0 1 .156.366q0 .22-.151.356-.151.142-.513.142M200.103 33.589l.244-.85h.512q.313 0 .43.074.234.15.234.434a.5.5 0 0 1-.127.347.42.42 0 0 1-.297.146q-.123.523-.308.835.396 0 .508.073.239.147.239.43a.47.47 0 0 1-.156.361q-.151.137-.513.137h-.596l-.117-.156a1.4 1.4 0 0 1-.42.215 2.6 2.6 0 0 1-.722.088q-.885 0-1.372-.45a1.5 1.5 0 0 1-.484-1.147q0-.474.239-.903.245-.435.743-.728a3.3 3.3 0 0 1-.284-.552 1.4 1.4 0 0 1-.063-.424q0-.606.459-1.06a1.49 1.49 0 0 1 1.431-.415q.175.039.361.127a.7.7 0 0 1 .264-.078.47.47 0 0 1 .351.151.48.48 0 0 1 .147.352.47.47 0 0 1-.083.283q-.078.107-.323.24l-.42.224a2 2 0 0 0-.385-.288.6.6 0 0 0-.259-.054.53.53 0 0 0-.386.156.48.48 0 0 0-.156.352q0 .17.288.59zm-1.387-.254q-.557.258-.557.786 0 .279.191.44.19.16.664.16.302 0 .556-.146zM55.962 48.589l.244-.85h.513q.312 0 .43.074.234.15.234.434a.5.5 0 0 1-.127.347.42.42 0 0 1-.298.146q-.122.523-.308.835.396 0 .508.073.24.147.24.43a.47.47 0 0 1-.157.361q-.15.137-.513.137h-.595l-.117-.156a1.4 1.4 0 0 1-.42.215 2.6 2.6 0 0 1-.723.088q-.884 0-1.372-.45a1.5 1.5 0 0 1-.483-1.147q0-.474.239-.903.244-.435.742-.728a3.3 3.3 0 0 1-.283-.552 1.4 1.4 0 0 1-.064-.424q0-.606.46-1.06a1.49 1.49 0 0 1 1.43-.415q.176.039.361.127a.7.7 0 0 1 .264-.078q.205 0 .352.151a.48.48 0 0 1 .146.352.46.46 0 0 1-.083.283q-.078.107-.322.24l-.42.224a2 2 0 0 0-.386-.288.6.6 0 0 0-.259-.054.52.52 0 0 0-.385.156.48.48 0 0 0-.157.352q0 .17.288.59zm-1.387-.254q-.555.258-.556.786 0 .279.19.44t.664.16q.303 0 .557-.146zM60.566 48.145q0-.855.284-1.729.21-.645.649-1.435.318-.567.469-.694a.5.5 0 0 1 .337-.132.5.5 0 0 1 .361.147.48.48 0 0 1 .147.351q0 .142-.118.337a7.7 7.7 0 0 0-.771 1.621 5.06 5.06 0 0 0 0 3.072q.245.756.771 1.62.117.191.117.338a.48.48 0 0 1-.146.351.5.5 0 0 1-.361.147.47.47 0 0 1-.318-.117q-.195-.171-.517-.767-.465-.864-.635-1.426a5.6 5.6 0 0 1-.269-1.684M67.358 48.145a5.6 5.6 0 0 1-.283 1.733q-.21.645-.65 1.43-.316.566-.468.699a.5.5 0 0 1-.337.132.5.5 0 0 1-.361-.147.48.48 0 0 1-.147-.351q0-.147.118-.337.527-.865.766-1.621a4.965 4.965 0 0 0 0-3.071q-.24-.758-.766-1.622a.7.7 0 0 1-.118-.337.48.48 0 0 1 .147-.351.5.5 0 0 1 .361-.147q.18 0 .317.117.195.167.518.767.464.864.635 1.421a5.7 5.7 0 0 1 .268 1.685M79.985 48.589l.245-.85h.512q.313 0 .43.074.234.15.234.434a.5.5 0 0 1-.127.347.42.42 0 0 1-.298.146q-.12.523-.307.835.395 0 .508.073.24.147.239.43a.47.47 0 0 1-.156.361q-.151.137-.513.137h-.596l-.117-.156a1.4 1.4 0 0 1-.42.215q-.298.087-.722.088-.885 0-1.373-.45a1.5 1.5 0 0 1-.483-1.147q0-.474.24-.903.244-.435.741-.728a3.3 3.3 0 0 1-.283-.552 1.4 1.4 0 0 1-.063-.424q0-.606.459-1.06a1.49 1.49 0 0 1 1.43-.415q.176.039.362.127a.7.7 0 0 1 .263-.078q.205 0 .352.151a.48.48 0 0 1 .147.352.46.46 0 0 1-.083.283q-.079.107-.323.24l-.42.224a2 2 0 0 0-.385-.288.6.6 0 0 0-.26-.054.52.52 0 0 0-.385.156.48.48 0 0 0-.156.352q0 .17.288.59zm-1.386-.254q-.557.258-.557.786 0 .279.19.44t.665.16q.302 0 .556-.146zM83.804 43.955l3.213 6.885q.024.054.083.249.03.113.029.17 0 .176-.142.308a.47.47 0 0 1-.341.132.48.48 0 0 1-.303-.088q-.112-.087-.235-.341L82.9 44.38q-.122-.259-.122-.386 0-.186.147-.332a.5.5 0 0 1 .351-.146q.181 0 .293.087.112.089.235.352M93.018 44.375l-3.208 6.914q-.123.26-.22.337a.47.47 0 0 1-.308.102.5.5 0 0 1-.356-.146.46.46 0 0 1-.147-.332q0-.132.118-.386l3.217-6.909q.123-.258.215-.337a.5.5 0 0 1 .308-.102.48.48 0 0 1 .351.146.44.44 0 0 1 .147.327q0 .132-.117.386M98.003 48.589l.244-.85h.513q.312 0 .43.074.234.15.234.434a.5.5 0 0 1-.127.347.42.42 0 0 1-.298.146q-.122.523-.308.835.396 0 .508.073.24.147.24.43a.47.47 0 0 1-.157.361q-.15.137-.513.137h-.595l-.117-.156a1.4 1.4 0 0 1-.42.215q-.299.087-.723.088-.884 0-1.372-.45a1.5 1.5 0 0 1-.483-1.147q0-.474.239-.903.244-.435.742-.728a3.3 3.3 0 0 1-.283-.552 1.4 1.4 0 0 1-.064-.424q0-.606.46-1.06a1.49 1.49 0 0 1 1.43-.415q.176.039.361.127a.7.7 0 0 1 .264-.078q.205 0 .352.151a.48.48 0 0 1 .146.352.46.46 0 0 1-.083.283q-.079.107-.322.24l-.42.224a2 2 0 0 0-.386-.288.6.6 0 0 0-.259-.054.52.52 0 0 0-.385.156.48.48 0 0 0-.157.352q0 .17.288.59zm-1.387-.254q-.555.258-.556.786 0 .279.19.44t.664.16q.302 0 .557-.146zM103.472 45.22v5.957q0 .513-.025.61a.45.45 0 0 1-.176.25.5.5 0 0 1-.605 0 .46.46 0 0 1-.171-.26q-.024-.087-.024-.6V45.22q0-.513.024-.61a.46.46 0 0 1 .171-.25.5.5 0 0 1 .781.254q.025.097.025.606M108.613 48.145q0-.855.283-1.729.21-.645.65-1.435.317-.567.469-.694a.5.5 0 0 1 .337-.132q.214 0 .361.147a.48.48 0 0 1 .146.351.7.7 0 0 1-.117.337q-.527.864-.771 1.621a5.05 5.05 0 0 0 0 3.072q.244.756.771 1.62.117.191.117.338a.48.48 0 0 1-.146.351.5.5 0 0 1-.361.147.47.47 0 0 1-.318-.117q-.195-.171-.517-.767-.465-.864-.635-1.426a5.6 5.6 0 0 1-.269-1.684M115.405 48.145q0 .855-.283 1.733-.21.645-.649 1.43-.318.566-.469.699a.5.5 0 0 1-.337.132.5.5 0 0 1-.361-.147.48.48 0 0 1-.147-.351q0-.147.117-.337a7.5 7.5 0 0 0 .767-1.621 4.97 4.97 0 0 0 0-3.072 7.5 7.5 0 0 0-.767-1.62.7.7 0 0 1-.117-.338q0-.205.147-.351a.5.5 0 0 1 .361-.147q.18 0 .317.117.196.167.518.767.464.864.635 1.421.268.864.268 1.685M121.489 45.22v5.957q0 .513-.024.61a.46.46 0 0 1-.176.25.498.498 0 0 1-.605 0 .46.46 0 0 1-.171-.26q-.025-.087-.025-.6V45.22q0-.513.025-.61a.498.498 0 0 1 .776-.249q.137.102.176.253.024.097.024.606M129.053 44.375l-3.208 6.914q-.123.26-.22.337a.48.48 0 0 1-.308.102.5.5 0 0 1-.356-.146.46.46 0 0 1-.147-.332q0-.132.118-.386l3.217-6.909q.122-.258.215-.337a.5.5 0 0 1 .308-.102q.206 0 .351.146a.44.44 0 0 1 .147.327q0 .132-.117.386M134.038 48.589l.244-.85h.513q.312 0 .43.074.234.15.234.434a.5.5 0 0 1-.127.347.42.42 0 0 1-.298.146 3 3 0 0 1-.307.835q.395 0 .507.073.24.147.24.43a.46.46 0 0 1-.157.361q-.151.137-.512.137h-.596l-.117-.156a1.4 1.4 0 0 1-.42.215q-.298.087-.723.088-.883 0-1.372-.45a1.5 1.5 0 0 1-.483-1.147q0-.474.239-.903.244-.435.742-.728a3.4 3.4 0 0 1-.283-.552 1.4 1.4 0 0 1-.063-.424q0-.606.459-1.06a1.48 1.48 0 0 1 1.43-.415q.176.039.361.127a.7.7 0 0 1 .264-.078q.205 0 .352.151a.48.48 0 0 1 .146.352.46.46 0 0 1-.083.283q-.078.107-.322.24l-.42.224a2 2 0 0 0-.386-.288.6.6 0 0 0-.259-.054.52.52 0 0 0-.385.156.48.48 0 0 0-.157.352q0 .17.289.59zm-1.387-.254q-.556.258-.556.786 0 .279.19.44t.664.16q.303 0 .557-.146zM137.856 43.955l3.213 6.885q.025.054.083.249.03.113.03.17a.41.41 0 0 1-.142.308.47.47 0 0 1-.342.132.47.47 0 0 1-.302-.088q-.112-.087-.235-.341l-3.208-6.89q-.122-.259-.122-.386 0-.186.147-.332a.49.49 0 0 1 .351-.146.46.46 0 0 1 .293.087q.113.089.234.352M147.07 44.375l-3.208 6.914q-.121.26-.219.337a.48.48 0 0 1-.308.102.5.5 0 0 1-.356-.146.46.46 0 0 1-.147-.332q0-.132.117-.386l3.218-6.909q.122-.258.215-.337a.5.5 0 0 1 .307-.102.48.48 0 0 1 .352.146.44.44 0 0 1 .147.327q0 .132-.118.386M156.367 44.463h1.289l-.317 2.578q-.024.205-.108.283a.3.3 0 0 1-.21.074.3.3 0 0 1-.205-.074q-.078-.078-.102-.278zM163.794 45.718q0 .585-.415 1-.411.41-.996.41-.586 0-1.001-.41a1.36 1.36 0 0 1-.415-1q0-.586.415-1.001t1.001-.415q.585 0 .996.415.415.41.415 1m-.615 0a.75.75 0 0 0-.235-.562.77.77 0 0 0-.561-.234.77.77 0 0 0-.567.234.76.76 0 0 0-.229.562q0 .327.234.561a.77.77 0 0 0 .562.235.77.77 0 0 0 .561-.235.76.76 0 0 0 .235-.561m1.797 1.489-3.692 1.196a.8.8 0 0 1-.2.044.27.27 0 0 1-.2-.093.326.326 0 0 1-.02-.42q.049-.063.23-.121l3.691-1.197a.8.8 0 0 1 .2-.044q.117 0 .201.098a.32.32 0 0 1 .087.224.3.3 0 0 1-.068.191q-.049.063-.229.122m.087 2.105q0 .585-.415 1a1.37 1.37 0 0 1-1.001.41q-.585 0-1.001-.414a1.36 1.36 0 0 1-.415-.996q0-.587.415-1.001a1.37 1.37 0 0 1 1.001-.416q.587 0 1.001.415.415.411.415 1.002m-.62 0a.76.76 0 0 0-.234-.562.77.77 0 0 0-.562-.234.77.77 0 0 0-.561.234.76.76 0 0 0-.234.562q0 .327.234.561.234.23.561.23a.77.77 0 0 0 .562-.23.77.77 0 0 0 .234-.561M167.319 44.536h1.289l-.317 2.393q-.024.185-.107.258a.3.3 0 0 1-.205.074.3.3 0 0 1-.21-.074q-.08-.073-.103-.253zm2.085 0h1.289l-.317 2.393q-.024.185-.103.258a.3.3 0 0 1-.21.074.3.3 0 0 1-.209-.074q-.08-.073-.103-.253zM182.085 48.589l.244-.85h.513q.312 0 .429.074.235.15.235.434a.5.5 0 0 1-.127.347.42.42 0 0 1-.298.146q-.122.523-.308.835.396 0 .508.073.24.147.24.43a.47.47 0 0 1-.157.361q-.152.137-.512.137h-.596l-.117-.156a1.4 1.4 0 0 1-.42.215q-.298.087-.723.088-.883 0-1.372-.45a1.5 1.5 0 0 1-.483-1.147q0-.474.239-.903.244-.435.742-.728a3.3 3.3 0 0 1-.283-.552 1.4 1.4 0 0 1-.064-.424q0-.606.459-1.06a1.49 1.49 0 0 1 1.431-.415q.176.039.361.127a.7.7 0 0 1 .264-.078q.205 0 .352.151a.48.48 0 0 1 .146.352.47.47 0 0 1-.083.283q-.078.107-.322.24l-.42.224a2 2 0 0 0-.386-.288.6.6 0 0 0-.259-.054.52.52 0 0 0-.385.156.47.47 0 0 0-.157.352q0 .17.288.59zm-1.387-.254q-.556.258-.556.786 0 .279.19.44t.664.16q.303 0 .557-.146zM192.695 48.145q0-.855.284-1.729.209-.645.649-1.435.318-.567.469-.694a.5.5 0 0 1 .337-.132q.214 0 .361.147a.48.48 0 0 1 .146.351.7.7 0 0 1-.117.337q-.527.864-.771 1.621a5.05 5.05 0 0 0 0 3.072q.244.756.771 1.62.117.191.117.338a.48.48 0 0 1-.146.351.5.5 0 0 1-.361.147.47.47 0 0 1-.318-.117q-.195-.171-.517-.767-.464-.864-.635-1.426a5.6 5.6 0 0 1-.269-1.684M199.487 48.145q0 .855-.283 1.733-.21.645-.649 1.43-.318.566-.469.699a.5.5 0 0 1-.337.132.5.5 0 0 1-.361-.147.48.48 0 0 1-.147-.351q0-.147.117-.337a7.5 7.5 0 0 0 .767-1.621 4.97 4.97 0 0 0 0-3.072 7.5 7.5 0 0 0-.767-1.62.7.7 0 0 1-.117-.338q0-.205.147-.351a.5.5 0 0 1 .361-.147q.18 0 .317.117.196.167.518.767.464.864.635 1.421.268.864.268 1.685M49.956 63.589l.244-.85h.513q.313 0 .43.074.234.15.234.434a.5.5 0 0 1-.127.347.42.42 0 0 1-.298.146q-.122.522-.307.835.395 0 .507.073.24.147.24.43a.47.47 0 0 1-.157.361q-.15.137-.512.137h-.596l-.117-.156a1.4 1.4 0 0 1-.42.215q-.299.087-.723.088-.883 0-1.372-.45a1.5 1.5 0 0 1-.483-1.147q0-.474.239-.903.244-.435.742-.728a3.3 3.3 0 0 1-.283-.552 1.4 1.4 0 0 1-.063-.424q0-.606.459-1.06a1.49 1.49 0 0 1 1.43-.415q.176.039.361.127a.7.7 0 0 1 .264-.078q.205 0 .352.151a.48.48 0 0 1 .146.352.46.46 0 0 1-.083.283q-.078.107-.322.24l-.42.224a2 2 0 0 0-.386-.288.6.6 0 0 0-.258-.054.52.52 0 0 0-.386.156.48.48 0 0 0-.157.352q0 .17.288.59zm-1.387-.254q-.555.258-.556.786 0 .278.19.44.19.16.664.16.303 0 .557-.146zM57.69 68.58h-5.498q-.36 0-.512-.138a.46.46 0 0 1-.157-.36q0-.225.157-.367.151-.137.512-.137h5.498q.357 0 .508.137a.47.47 0 0 1 .157.366q0 .22-.152.356-.15.142-.513.142M59.78 58.955l3.213 6.885q.024.054.083.249.03.113.03.17 0 .176-.142.308a.47.47 0 0 1-.342.132.48.48 0 0 1-.303-.088q-.113-.087-.234-.342l-3.208-6.89q-.122-.258-.122-.385 0-.186.146-.332a.5.5 0 0 1 .352-.146q.18 0 .293.087.112.089.234.352M69.702 68.58h-5.498q-.36 0-.513-.138a.46.46 0 0 1-.156-.36q0-.225.156-.367.151-.137.513-.137h5.498q.357 0 .508.137a.47.47 0 0 1 .156.366q0 .22-.151.356-.151.142-.513.142M73.98 63.589l.244-.85h.512q.313 0 .43.074.234.15.234.434a.5.5 0 0 1-.127.347.42.42 0 0 1-.297.146q-.122.522-.308.835.396 0 .508.073.24.147.239.43a.47.47 0 0 1-.156.361q-.152.137-.513.137h-.596l-.117-.156a1.4 1.4 0 0 1-.42.215 2.6 2.6 0 0 1-.722.088q-.885 0-1.372-.45a1.5 1.5 0 0 1-.484-1.147q0-.474.24-.903.243-.435.742-.728a3.3 3.3 0 0 1-.284-.552 1.4 1.4 0 0 1-.063-.424q0-.606.459-1.06a1.49 1.49 0 0 1 1.43-.415q.177.039.362.127a.7.7 0 0 1 .264-.078q.205 0 .351.151a.48.48 0 0 1 .147.352.46.46 0 0 1-.083.283q-.078.107-.323.24l-.42.224a2 2 0 0 0-.385-.288.6.6 0 0 0-.26-.054.52.52 0 0 0-.385.156.48.48 0 0 0-.156.352q0 .17.288.59zm-1.387-.254q-.557.258-.557.786 0 .278.19.44.19.16.665.16.302 0 .556-.146zM79.985 63.589l.245-.85h.512q.313 0 .43.074.234.15.234.434a.5.5 0 0 1-.127.347.42.42 0 0 1-.298.146q-.12.522-.307.835.395 0 .508.073.24.147.239.43a.47.47 0 0 1-.156.361q-.151.137-.513.137h-.596l-.117-.156a1.4 1.4 0 0 1-.42.215q-.298.087-.722.088-.885 0-1.373-.45a1.5 1.5 0 0 1-.483-1.147q0-.474.24-.903.244-.435.741-.728a3.3 3.3 0 0 1-.283-.552 1.4 1.4 0 0 1-.063-.424q0-.606.459-1.06a1.49 1.49 0 0 1 1.43-.415q.176.039.362.127a.7.7 0 0 1 .263-.078q.205 0 .352.151a.48.48 0 0 1 .147.352.46.46 0 0 1-.083.283q-.079.107-.323.24l-.42.224a2 2 0 0 0-.385-.288.6.6 0 0 0-.26-.054.52.52 0 0 0-.385.156.48.48 0 0 0-.156.352q0 .17.288.59zm-1.386-.254q-.557.258-.557.786 0 .278.19.44.19.16.665.16.302 0 .556-.146zM87.72 68.58h-5.498q-.362 0-.513-.138a.46.46 0 0 1-.156-.36q0-.225.156-.367.15-.137.513-.137h5.498q.356 0 .508.137a.47.47 0 0 1 .156.366q0 .22-.152.356-.15.142-.512.142M89.81 58.955l3.212 6.885q.025.054.084.249.029.113.029.17 0 .176-.142.308a.47.47 0 0 1-.342.132.48.48 0 0 1-.302-.088q-.112-.087-.235-.342l-3.208-6.89q-.122-.258-.122-.385 0-.186.147-.332a.5.5 0 0 1 .351-.146q.18 0 .293.087.112.089.235.352M103.472 60.22v5.957q0 .513-.025.61a.45.45 0 0 1-.176.25.5.5 0 0 1-.605 0 .46.46 0 0 1-.171-.26q-.024-.087-.024-.6V60.22q0-.513.024-.61a.46.46 0 0 1 .171-.25.5.5 0 0 1 .781.254q.025.097.025.606M110.015 63.589l.244-.85h.512q.313 0 .43.074.235.15.235.434a.5.5 0 0 1-.127.347.42.42 0 0 1-.298.146q-.122.522-.308.835.396 0 .508.073.239.147.239.43a.47.47 0 0 1-.156.361q-.151.137-.513.137h-.595l-.118-.156a1.4 1.4 0 0 1-.42.215 2.6 2.6 0 0 1-.722.088q-.884 0-1.372-.45a1.5 1.5 0 0 1-.484-1.147q0-.474.24-.903.243-.435.742-.728a3.3 3.3 0 0 1-.283-.552 1.4 1.4 0 0 1-.064-.424q0-.606.459-1.06a1.49 1.49 0 0 1 1.431-.415q.175.039.361.127a.7.7 0 0 1 .264-.078.47.47 0 0 1 .351.151.48.48 0 0 1 .147.352.47.47 0 0 1-.083.283q-.078.107-.323.24l-.419.224a2 2 0 0 0-.386-.288.6.6 0 0 0-.259-.054.53.53 0 0 0-.386.156.48.48 0 0 0-.156.352q0 .17.288.59zm-1.387-.254q-.557.258-.557.786 0 .278.191.44.19.16.664.16.303 0 .556-.146zM121.489 60.22v5.957q0 .513-.024.61a.46.46 0 0 1-.176.25.498.498 0 0 1-.605 0 .46.46 0 0 1-.171-.26q-.025-.087-.025-.6V60.22q0-.513.025-.61a.498.498 0 0 1 .776-.249q.137.102.176.253.024.097.024.606M128.032 63.589l.244-.85h.513q.313 0 .43.074.234.15.234.434a.5.5 0 0 1-.127.347.42.42 0 0 1-.298.146 3 3 0 0 1-.307.835q.395 0 .508.073.239.147.239.43a.47.47 0 0 1-.156.361q-.151.137-.513.137h-.596l-.117-.156a1.4 1.4 0 0 1-.42.215 2.6 2.6 0 0 1-.723.088q-.883 0-1.372-.45a1.5 1.5 0 0 1-.483-1.147q0-.474.239-.903.244-.435.742-.728a3.4 3.4 0 0 1-.283-.552 1.4 1.4 0 0 1-.063-.424q0-.606.459-1.06a1.49 1.49 0 0 1 1.43-.415q.176.039.362.127a.7.7 0 0 1 .263-.078q.205 0 .352.151a.48.48 0 0 1 .146.352.46.46 0 0 1-.083.283q-.078.107-.322.24l-.42.224a2 2 0 0 0-.386-.288.6.6 0 0 0-.258-.054.53.53 0 0 0-.386.156.48.48 0 0 0-.156.352q0 .17.288.59zm-1.386-.254q-.558.258-.557.786 0 .278.19.44.191.16.664.16.303 0 .557-.146zM134.038 63.589l.244-.85h.513q.312 0 .43.074.234.15.234.434a.5.5 0 0 1-.127.347.42.42 0 0 1-.298.146 3 3 0 0 1-.307.835q.395 0 .507.073.24.147.24.43a.46.46 0 0 1-.157.361q-.151.137-.512.137h-.596l-.117-.156a1.4 1.4 0 0 1-.42.215q-.298.087-.723.088-.883 0-1.372-.45a1.5 1.5 0 0 1-.483-1.147q0-.474.239-.903.244-.435.742-.728a3.4 3.4 0 0 1-.283-.552 1.4 1.4 0 0 1-.063-.424q0-.606.459-1.06a1.48 1.48 0 0 1 1.43-.415q.176.039.361.127a.7.7 0 0 1 .264-.078q.205 0 .352.151a.48.48 0 0 1 .146.352.46.46 0 0 1-.083.283q-.078.107-.322.24l-.42.224a2 2 0 0 0-.386-.288.6.6 0 0 0-.259-.054.52.52 0 0 0-.385.156.48.48 0 0 0-.157.352q0 .17.289.59zm-1.387-.254q-.556.258-.556.786 0 .278.19.44.19.16.664.16.303 0 .557-.146zM141.064 59.375l-3.208 6.914q-.121.26-.219.337a.48.48 0 0 1-.308.102.5.5 0 0 1-.356-.146.46.46 0 0 1-.147-.332q0-.131.117-.386l3.218-6.909q.123-.258.215-.337a.5.5 0 0 1 .308-.102q.205 0 .351.146a.44.44 0 0 1 .147.327q0 .132-.118.386M146.05 63.589l.244-.85h.513q.312 0 .429.074.235.15.235.434a.5.5 0 0 1-.127.347.42.42 0 0 1-.298.146q-.122.522-.308.835.396 0 .508.073.24.147.239.43a.47.47 0 0 1-.156.361q-.151.137-.513.137h-.595l-.117-.156a1.4 1.4 0 0 1-.42.215q-.299.087-.723.088-.884 0-1.372-.45a1.5 1.5 0 0 1-.484-1.147q0-.474.24-.903.244-.435.742-.728a3.3 3.3 0 0 1-.283-.552 1.4 1.4 0 0 1-.064-.424q0-.606.459-1.06a1.49 1.49 0 0 1 1.431-.415q.176.039.361.127a.7.7 0 0 1 .264-.078.47.47 0 0 1 .351.151.48.48 0 0 1 .147.352.47.47 0 0 1-.083.283q-.078.107-.322.24l-.42.224a2 2 0 0 0-.386-.288.6.6 0 0 0-.259-.054.53.53 0 0 0-.386.156.48.48 0 0 0-.156.352q0 .17.288.59zm-1.387-.254q-.557.258-.557.786 0 .278.191.44.19.16.664.16.303 0 .557-.146zM153.784 68.58h-5.498q-.362 0-.513-.138a.46.46 0 0 1-.156-.36q0-.225.156-.367.151-.137.513-.137h5.498q.357 0 .508.137a.47.47 0 0 1 .156.366q0 .22-.151.356-.151.142-.513.142"/><path fill="#62cb68" d="M159.79 68.58h-5.498q-.362 0-.513-.138a.46.46 0 0 1-.156-.36q0-.225.156-.367.151-.137.513-.137h5.498q.357 0 .508.137a.47.47 0 0 1 .156.366q0 .22-.151.356-.151.142-.513.142M163.794 60.718q0 .585-.415 1-.411.41-.996.41-.586 0-1.001-.41a1.36 1.36 0 0 1-.415-1q0-.586.415-1.001t1.001-.415q.585 0 .996.415.415.41.415 1m-.615 0a.75.75 0 0 0-.235-.562.77.77 0 0 0-.561-.234.77.77 0 0 0-.567.234.76.76 0 0 0-.229.562q0 .327.234.561a.77.77 0 0 0 .562.235.77.77 0 0 0 .561-.235.76.76 0 0 0 .235-.561m1.797 1.489-3.692 1.196a.8.8 0 0 1-.2.044.27.27 0 0 1-.2-.093.326.326 0 0 1-.02-.42q.049-.063.23-.121l3.691-1.197a.8.8 0 0 1 .2-.044q.117 0 .201.098a.32.32 0 0 1 .087.224.3.3 0 0 1-.068.191q-.049.063-.229.122m.087 2.104q0 .587-.415 1.001a1.37 1.37 0 0 1-1.001.41q-.585 0-1.001-.414a1.36 1.36 0 0 1-.415-.997q0-.585.415-1a1.37 1.37 0 0 1 1.001-.416q.587 0 1.001.415.415.411.415 1.001m-.62 0a.76.76 0 0 0-.234-.561.77.77 0 0 0-.562-.234.77.77 0 0 0-.561.234.76.76 0 0 0-.234.561q0 .328.234.562.234.23.561.23a.77.77 0 0 0 .562-.23.77.77 0 0 0 .234-.562M171.802 68.58h-5.498q-.362 0-.513-.138a.46.46 0 0 1-.156-.36q0-.225.156-.367.151-.137.513-.137h5.498q.356 0 .508.137a.47.47 0 0 1 .156.366.46.46 0 0 1-.152.356q-.15.142-.512.142M177.1 59.375l-3.208 6.914q-.123.26-.22.337a.48.48 0 0 1-.308.102.5.5 0 0 1-.356-.146.46.46 0 0 1-.147-.332q0-.131.118-.386l3.217-6.909q.122-.258.215-.337a.5.5 0 0 1 .308-.102q.205 0 .351.146a.44.44 0 0 1 .147.327q0 .132-.117.386M183.813 68.58h-5.498q-.36 0-.512-.138a.46.46 0 0 1-.157-.36q0-.225.157-.367.152-.137.512-.137h5.498q.357 0 .508.137a.47.47 0 0 1 .157.366.46.46 0 0 1-.152.356q-.151.142-.513.142M188.091 63.589l.244-.85h.513q.312 0 .429.074.235.15.235.434a.5.5 0 0 1-.127.347.42.42 0 0 1-.298.146q-.122.522-.308.835.396 0 .508.073.24.147.239.43a.47.47 0 0 1-.156.361q-.151.137-.513.137h-.595l-.117-.156a1.4 1.4 0 0 1-.42.215q-.298.087-.723.088-.884 0-1.372-.45a1.5 1.5 0 0 1-.484-1.147q0-.474.24-.903.244-.435.742-.728a3.3 3.3 0 0 1-.283-.552 1.4 1.4 0 0 1-.064-.424q0-.606.459-1.06a1.49 1.49 0 0 1 1.431-.415q.176.039.361.127a.7.7 0 0 1 .264-.078.47.47 0 0 1 .351.151.48.48 0 0 1 .147.352.47.47 0 0 1-.083.283q-.078.107-.322.24l-.42.224a2 2 0 0 0-.386-.288.6.6 0 0 0-.259-.054.53.53 0 0 0-.386.156.48.48 0 0 0-.156.352q0 .17.288.59zm-1.387-.254q-.557.258-.557.786 0 .278.191.44.19.16.664.16.303 0 .557-.146zM200.103 63.589l.244-.85h.512q.313 0 .43.074.234.15.234.434a.5.5 0 0 1-.127.347.42.42 0 0 1-.297.146q-.123.522-.308.835.396 0 .508.073.239.147.239.43a.47.47 0 0 1-.156.361q-.151.137-.513.137h-.596l-.117-.156a1.4 1.4 0 0 1-.42.215 2.6 2.6 0 0 1-.722.088q-.885 0-1.372-.45a1.5 1.5 0 0 1-.484-1.147q0-.474.239-.903.245-.435.743-.728a3.3 3.3 0 0 1-.284-.552 1.4 1.4 0 0 1-.063-.424q0-.606.459-1.06a1.49 1.49 0 0 1 1.431-.415q.175.039.361.127a.7.7 0 0 1 .264-.078.47.47 0 0 1 .351.151.48.48 0 0 1 .147.352.47.47 0 0 1-.083.283q-.078.107-.323.24l-.42.224a2 2 0 0 0-.385-.288.6.6 0 0 0-.259-.054.53.53 0 0 0-.386.156.48.48 0 0 0-.156.352q0 .17.288.59zm-1.387-.254q-.557.258-.557.786 0 .278.191.44.19.16.664.16.302 0 .556-.146zM206.108 63.589l.245-.85h.512q.313 0 .43.074.234.15.234.434a.5.5 0 0 1-.127.347.42.42 0 0 1-.298.146q-.121.522-.307.835.396 0 .508.073.239.147.239.43a.47.47 0 0 1-.156.361q-.151.137-.513.137h-.596l-.117-.156a1.4 1.4 0 0 1-.42.215 2.6 2.6 0 0 1-.722.088q-.885 0-1.373-.45a1.5 1.5 0 0 1-.483-1.147q0-.474.239-.903.244-.435.743-.728a3.3 3.3 0 0 1-.284-.552 1.4 1.4 0 0 1-.063-.424q0-.606.459-1.06a1.49 1.49 0 0 1 1.43-.415q.177.039.362.127a.7.7 0 0 1 .263-.078q.205 0 .352.151a.48.48 0 0 1 .147.352.47.47 0 0 1-.083.283q-.079.107-.323.24l-.42.224a2 2 0 0 0-.385-.288.6.6 0 0 0-.259-.054.53.53 0 0 0-.386.156.48.48 0 0 0-.156.352q0 .17.288.59zm-1.386-.254q-.557.258-.557.786 0 .278.19.44.19.16.665.16.302 0 .556-.146zM37.944 78.589l.244-.85h.513q.313 0 .43.073.234.151.234.435a.5.5 0 0 1-.127.347.42.42 0 0 1-.298.146q-.121.523-.307.835.396 0 .508.073.24.147.239.43a.47.47 0 0 1-.156.361q-.152.137-.513.137h-.596l-.117-.156a1.4 1.4 0 0 1-.42.215q-.298.087-.723.088-.883 0-1.372-.45A1.5 1.5 0 0 1 35 79.126q0-.474.24-.903.244-.435.741-.728a3.3 3.3 0 0 1-.283-.552 1.4 1.4 0 0 1-.063-.424q0-.606.459-1.06a1.49 1.49 0 0 1 1.43-.415q.177.039.362.127a.7.7 0 0 1 .263-.078q.205 0 .352.151a.48.48 0 0 1 .147.352.46.46 0 0 1-.084.283q-.078.107-.322.24l-.42.224a2 2 0 0 0-.386-.288.6.6 0 0 0-.258-.054.52.52 0 0 0-.386.156.48.48 0 0 0-.156.352q0 .17.288.59zm-1.386-.254q-.557.258-.557.786 0 .278.19.44.191.16.664.16.303 0 .557-.146zM43.95 78.589l.244-.85h.513q.313 0 .43.073.234.151.234.435a.5.5 0 0 1-.127.347.42.42 0 0 1-.298.146q-.122.523-.307.835.395 0 .508.073.239.147.239.43a.47.47 0 0 1-.157.361q-.15.137-.512.137h-.596l-.117-.156a1.4 1.4 0 0 1-.42.215 2.6 2.6 0 0 1-.723.088q-.883 0-1.372-.45a1.5 1.5 0 0 1-.483-1.147q0-.474.24-.903.244-.435.741-.728a3.3 3.3 0 0 1-.283-.552 1.4 1.4 0 0 1-.063-.424q0-.606.459-1.06a1.49 1.49 0 0 1 1.43-.415q.176.039.362.127a.7.7 0 0 1 .263-.078q.205 0 .352.151a.48.48 0 0 1 .146.352.46.46 0 0 1-.083.283q-.078.107-.322.24l-.42.224a2 2 0 0 0-.386-.288.6.6 0 0 0-.258-.054.52.52 0 0 0-.386.156.48.48 0 0 0-.156.352q0 .17.288.59zm-1.387-.254q-.555.258-.556.786 0 .278.19.44.191.16.664.16.303 0 .557-.146zM67.974 78.589l.244-.85h.513q.312 0 .43.073.233.151.233.435a.5.5 0 0 1-.126.347.42.42 0 0 1-.298.146q-.122.523-.308.835.396 0 .508.073.24.147.24.43a.47.47 0 0 1-.157.361q-.152.137-.513.137h-.596l-.117-.156a1.4 1.4 0 0 1-.42.215q-.297.087-.722.088-.885 0-1.372-.45a1.5 1.5 0 0 1-.484-1.147q0-.474.24-.903.243-.435.742-.728a3.3 3.3 0 0 1-.283-.552 1.4 1.4 0 0 1-.064-.424q0-.606.459-1.06a1.49 1.49 0 0 1 1.43-.415q.177.039.362.127a.7.7 0 0 1 .264-.078q.205 0 .351.151a.48.48 0 0 1 .147.352.46.46 0 0 1-.083.283q-.079.107-.322.24l-.42.224a2 2 0 0 0-.386-.288.6.6 0 0 0-.259-.054.52.52 0 0 0-.386.156.48.48 0 0 0-.156.352q0 .17.288.59zm-1.387-.254q-.557.258-.557.786 0 .278.19.44.191.16.665.16.303 0 .556-.146zM73.98 78.589l.244-.85h.512q.313 0 .43.073.234.151.234.435a.5.5 0 0 1-.127.347.42.42 0 0 1-.297.146q-.122.523-.308.835.396 0 .508.073.24.147.239.43a.47.47 0 0 1-.156.361q-.152.137-.513.137h-.596l-.117-.156a1.4 1.4 0 0 1-.42.215 2.6 2.6 0 0 1-.722.088q-.885 0-1.372-.45a1.5 1.5 0 0 1-.484-1.147q0-.474.24-.903.243-.435.742-.728a3.3 3.3 0 0 1-.284-.552 1.4 1.4 0 0 1-.063-.424q0-.606.459-1.06a1.49 1.49 0 0 1 1.43-.415q.177.039.362.127a.7.7 0 0 1 .264-.078q.205 0 .351.151a.48.48 0 0 1 .147.352.46.46 0 0 1-.083.283q-.078.107-.323.24l-.42.224a2 2 0 0 0-.385-.288.6.6 0 0 0-.26-.054.52.52 0 0 0-.385.156.48.48 0 0 0-.156.352q0 .17.288.59zm-1.387-.254q-.557.258-.557.786 0 .278.19.44.19.16.665.16.302 0 .556-.146zM85.991 78.589l.244-.85h.513q.313 0 .43.073.234.151.234.435a.5.5 0 0 1-.127.347.42.42 0 0 1-.298.146q-.122.523-.307.835.395 0 .507.073.24.147.24.43a.47.47 0 0 1-.157.361q-.15.137-.512.137h-.596l-.117-.156a1.4 1.4 0 0 1-.42.215 2.6 2.6 0 0 1-.723.088q-.883 0-1.372-.45a1.5 1.5 0 0 1-.483-1.147q0-.474.24-.903.244-.435.741-.728a3.3 3.3 0 0 1-.283-.552 1.4 1.4 0 0 1-.063-.424q0-.606.459-1.06a1.49 1.49 0 0 1 1.43-.415q.176.039.362.127a.7.7 0 0 1 .263-.078q.205 0 .352.151a.48.48 0 0 1 .146.352.46.46 0 0 1-.083.283q-.079.107-.322.24l-.42.224a2 2 0 0 0-.386-.288.6.6 0 0 0-.258-.054.52.52 0 0 0-.386.156.48.48 0 0 0-.156.352q0 .17.288.59zm-1.386-.254q-.558.258-.557.786 0 .278.19.44.191.16.664.16.303 0 .557-.146zM98.003 78.589l.244-.85h.513q.312 0 .43.073.234.151.234.435a.5.5 0 0 1-.127.347.42.42 0 0 1-.298.146q-.122.523-.308.835.396 0 .508.073.24.147.24.43a.47.47 0 0 1-.157.361q-.15.137-.513.137h-.595l-.117-.156a1.4 1.4 0 0 1-.42.215q-.299.087-.723.088-.884 0-1.372-.45a1.5 1.5 0 0 1-.483-1.147q0-.474.239-.903.244-.435.742-.728a3.3 3.3 0 0 1-.283-.552 1.4 1.4 0 0 1-.064-.424q0-.606.46-1.06a1.49 1.49 0 0 1 1.43-.415q.176.039.361.127a.7.7 0 0 1 .264-.078q.205 0 .352.151a.48.48 0 0 1 .146.352.46.46 0 0 1-.083.283q-.079.107-.322.24l-.42.224a2 2 0 0 0-.386-.288.6.6 0 0 0-.259-.054.52.52 0 0 0-.385.156.48.48 0 0 0-.157.352q0 .17.288.59zm-1.387-.254q-.555.258-.556.786 0 .278.19.44.19.16.664.16.302 0 .557-.146zM103.472 75.22v5.957q0 .513-.025.61a.45.45 0 0 1-.176.25.5.5 0 0 1-.605 0 .46.46 0 0 1-.171-.26q-.024-.087-.024-.6V75.22q0-.514.024-.61a.46.46 0 0 1 .171-.25.5.5 0 0 1 .781.254q.025.097.025.606M116.021 78.589l.244-.85h.512q.313 0 .43.073.234.151.234.435a.5.5 0 0 1-.127.347.42.42 0 0 1-.297.146q-.122.523-.308.835.396 0 .508.073.239.147.239.43a.47.47 0 0 1-.156.361q-.152.137-.513.137h-.596l-.117-.156a1.4 1.4 0 0 1-.42.215 2.6 2.6 0 0 1-.722.088q-.885 0-1.372-.45a1.5 1.5 0 0 1-.484-1.147q0-.474.239-.903.245-.435.743-.728a3.3 3.3 0 0 1-.284-.552 1.4 1.4 0 0 1-.063-.424q0-.606.459-1.06a1.49 1.49 0 0 1 1.431-.415q.175.039.361.127a.7.7 0 0 1 .264-.078q.204 0 .351.151a.48.48 0 0 1 .147.352.47.47 0 0 1-.083.283q-.078.107-.323.24l-.42.224a2 2 0 0 0-.385-.288.6.6 0 0 0-.259-.054.53.53 0 0 0-.386.156.48.48 0 0 0-.156.352q0 .17.288.59zm-1.387-.254q-.557.258-.557.786 0 .278.191.44.19.16.664.16.302 0 .556-.146zM121.489 75.22v5.957q0 .513-.024.61a.46.46 0 0 1-.176.25.498.498 0 0 1-.605 0 .46.46 0 0 1-.171-.26q-.025-.087-.025-.6V75.22q0-.514.025-.61a.498.498 0 0 1 .776-.249q.137.102.176.253.024.097.024.606M135.059 74.375l-3.208 6.914q-.123.26-.22.337a.48.48 0 0 1-.308.102.5.5 0 0 1-.356-.146.46.46 0 0 1-.147-.332q0-.131.118-.386l3.217-6.909q.123-.258.215-.337a.5.5 0 0 1 .308-.102q.205 0 .351.146a.44.44 0 0 1 .147.327q0 .132-.117.386M140.044 78.589l.244-.85h.513q.312 0 .429.073.235.151.235.435a.5.5 0 0 1-.127.347.42.42 0 0 1-.298.146q-.122.523-.308.835.396 0 .508.073.24.147.239.43a.47.47 0 0 1-.156.361q-.152.137-.512.137h-.596l-.117-.156a1.4 1.4 0 0 1-.42.215q-.298.087-.723.088-.883 0-1.372-.45a1.5 1.5 0 0 1-.483-1.147q0-.474.239-.903.244-.435.742-.728a3.3 3.3 0 0 1-.283-.552 1.4 1.4 0 0 1-.064-.424q0-.606.459-1.06a1.49 1.49 0 0 1 1.431-.415q.176.039.361.127a.7.7 0 0 1 .264-.078q.205 0 .352.151a.48.48 0 0 1 .146.352.47.47 0 0 1-.083.283q-.078.107-.322.24l-.42.224a2 2 0 0 0-.386-.288.6.6 0 0 0-.259-.054.52.52 0 0 0-.385.156.47.47 0 0 0-.157.352q0 .17.288.59zm-1.387-.254q-.556.258-.556.786 0 .278.19.44.19.16.664.16.302 0 .557-.146zM152.056 78.589l.244-.85h.512q.313 0 .43.073.235.151.235.435a.5.5 0 0 1-.127.347.42.42 0 0 1-.298.146q-.123.523-.308.835.396 0 .508.073.239.147.239.43a.47.47 0 0 1-.156.361q-.151.137-.513.137h-.595l-.118-.156a1.4 1.4 0 0 1-.42.215 2.6 2.6 0 0 1-.722.088q-.884 0-1.372-.45a1.5 1.5 0 0 1-.484-1.147q0-.474.24-.903.244-.435.742-.728a3.3 3.3 0 0 1-.283-.552 1.4 1.4 0 0 1-.064-.424q0-.606.459-1.06a1.49 1.49 0 0 1 1.431-.415q.175.039.361.127a.7.7 0 0 1 .264-.078.47.47 0 0 1 .351.151.48.48 0 0 1 .147.352.47.47 0 0 1-.083.283q-.078.107-.322.24l-.42.224a2 2 0 0 0-.386-.288.6.6 0 0 0-.259-.054.53.53 0 0 0-.386.156.48.48 0 0 0-.156.352q0 .17.288.59zm-1.387-.254q-.557.258-.557.786 0 .278.191.44.19.16.664.16.303 0 .556-.146zM163.794 75.718q0 .585-.415 1-.411.41-.996.41-.586 0-1.001-.41a1.36 1.36 0 0 1-.415-1q0-.586.415-1.001t1.001-.415q.585 0 .996.415.415.41.415 1m-.615 0a.75.75 0 0 0-.235-.562.77.77 0 0 0-.561-.234.77.77 0 0 0-.567.234.76.76 0 0 0-.229.562q0 .327.234.561a.77.77 0 0 0 .562.235.77.77 0 0 0 .561-.235.76.76 0 0 0 .235-.561m1.797 1.489-3.692 1.196a.8.8 0 0 1-.2.044.27.27 0 0 1-.2-.093.326.326 0 0 1-.02-.42q.049-.063.23-.121l3.691-1.197a.8.8 0 0 1 .2-.044q.117 0 .201.098a.32.32 0 0 1 .087.224.3.3 0 0 1-.068.191q-.049.063-.229.122m.087 2.105q0 .585-.415 1a1.37 1.37 0 0 1-1.001.41q-.585 0-1.001-.414a1.36 1.36 0 0 1-.415-.997q0-.585.415-1a1.37 1.37 0 0 1 1.001-.416q.587 0 1.001.416.415.41.415 1m-.62 0a.76.76 0 0 0-.234-.562.77.77 0 0 0-.562-.234.77.77 0 0 0-.561.234.76.76 0 0 0-.234.561q0 .328.234.562.234.23.561.23a.77.77 0 0 0 .562-.23.77.77 0 0 0 .234-.562M174.678 78.145q0-.855.283-1.729.21-.645.649-1.435.318-.567.469-.694a.5.5 0 0 1 .337-.132.5.5 0 0 1 .361.147.48.48 0 0 1 .147.351.7.7 0 0 1-.117.337 7.7 7.7 0 0 0-.772 1.621 5.08 5.08 0 0 0 0 3.072q.244.756.772 1.62.117.191.117.338a.48.48 0 0 1-.147.351.5.5 0 0 1-.361.147.47.47 0 0 1-.317-.117q-.196-.171-.518-.767-.464-.864-.635-1.426a5.6 5.6 0 0 1-.268-1.684M181.47 78.145q0 .855-.283 1.733-.21.644-.65 1.43-.317.566-.469.699a.5.5 0 0 1-.337.132.5.5 0 0 1-.361-.147.48.48 0 0 1-.146-.351q0-.147.117-.337.527-.865.766-1.621a5 5 0 0 0 .245-1.539 5 5 0 0 0-.245-1.533q-.239-.757-.766-1.62a.7.7 0 0 1-.117-.338q0-.205.146-.351a.5.5 0 0 1 .361-.147q.182 0 .318.117.196.167.517.767.464.864.635 1.421.269.864.269 1.685M188.091 78.589l.244-.85h.513q.312 0 .429.073.235.151.235.435a.5.5 0 0 1-.127.347.42.42 0 0 1-.298.146q-.122.523-.308.835.396 0 .508.073.24.147.239.43a.47.47 0 0 1-.156.361q-.151.137-.513.137h-.595l-.117-.156a1.4 1.4 0 0 1-.42.215q-.298.087-.723.088-.884 0-1.372-.45a1.5 1.5 0 0 1-.484-1.147q0-.474.24-.903.244-.435.742-.728a3.3 3.3 0 0 1-.283-.552 1.4 1.4 0 0 1-.064-.424q0-.606.459-1.06a1.49 1.49 0 0 1 1.431-.415q.176.039.361.127a.7.7 0 0 1 .264-.078.47.47 0 0 1 .351.151.48.48 0 0 1 .147.352.47.47 0 0 1-.083.283q-.078.107-.322.24l-.42.224a2 2 0 0 0-.386-.288.6.6 0 0 0-.259-.054.53.53 0 0 0-.386.156.48.48 0 0 0-.156.352q0 .17.288.59zm-1.387-.254q-.557.258-.557.786 0 .278.191.44.19.16.664.16.303 0 .557-.146zM201.123 74.375l-3.208 6.914q-.122.26-.22.337a.47.47 0 0 1-.307.102.5.5 0 0 1-.357-.146.46.46 0 0 1-.146-.332q0-.131.117-.386l3.218-6.909q.122-.258.215-.337a.48.48 0 0 1 .307-.102.48.48 0 0 1 .352.146.44.44 0 0 1 .146.327q0 .132-.117.386M206.108 78.589l.245-.85h.512q.313 0 .43.073.234.151.234.435a.5.5 0 0 1-.127.347.42.42 0 0 1-.298.146q-.121.523-.307.835.396 0 .508.073.239.147.239.43a.47.47 0 0 1-.156.361q-.151.137-.513.137h-.596l-.117-.156a1.4 1.4 0 0 1-.42.215 2.6 2.6 0 0 1-.722.088q-.885 0-1.373-.45a1.5 1.5 0 0 1-.483-1.147q0-.474.239-.903.244-.435.743-.728a3.3 3.3 0 0 1-.284-.552 1.4 1.4 0 0 1-.063-.424q0-.606.459-1.06a1.49 1.49 0 0 1 1.43-.415q.177.039.362.127a.7.7 0 0 1 .263-.078q.205 0 .352.151a.48.48 0 0 1 .147.352.47.47 0 0 1-.083.283q-.079.107-.323.24l-.42.224a2 2 0 0 0-.385-.288.6.6 0 0 0-.259-.054.53.53 0 0 0-.386.156.48.48 0 0 0-.156.352q0 .17.288.59zm-1.386-.254q-.557.258-.557.786 0 .278.19.44.19.16.665.16.302 0 .556-.146zM212.114 78.589l.244-.85h.513q.313 0 .43.073.234.151.234.435a.5.5 0 0 1-.127.347.42.42 0 0 1-.298.146 3 3 0 0 1-.307.835q.395 0 .508.073.239.147.239.43a.47.47 0 0 1-.156.361q-.151.137-.513.137h-.596l-.117-.156a1.4 1.4 0 0 1-.42.215 2.6 2.6 0 0 1-.723.088q-.883 0-1.372-.45a1.5 1.5 0 0 1-.483-1.147q0-.474.239-.903.244-.435.742-.728a3.4 3.4 0 0 1-.283-.552 1.4 1.4 0 0 1-.063-.424q0-.606.459-1.06a1.49 1.49 0 0 1 1.43-.415q.177.039.362.127a.7.7 0 0 1 .263-.078q.205 0 .352.151a.48.48 0 0 1 .146.352.46.46 0 0 1-.083.283q-.078.107-.322.24l-.42.224a2 2 0 0 0-.386-.288.6.6 0 0 0-.258-.054.53.53 0 0 0-.386.156.48.48 0 0 0-.156.352q0 .17.288.59zm-1.386-.254q-.558.258-.557.786 0 .278.19.44.191.16.664.16.303 0 .557-.146zM42.549 93.145q0-.855.283-1.729.21-.645.65-1.435.316-.567.468-.694a.5.5 0 0 1 .337-.132.5.5 0 0 1 .361.147.48.48 0 0 1 .147.351.7.7 0 0 1-.117.337 7.7 7.7 0 0 0-.772 1.621 5.06 5.06 0 0 0 0 3.072q.244.756.772 1.62.117.192.117.338a.48.48 0 0 1-.147.351.5.5 0 0 1-.36.147.47.47 0 0 1-.318-.117q-.195-.171-.518-.767-.464-.864-.635-1.426a5.6 5.6 0 0 1-.268-1.684M49.34 93.145a5.6 5.6 0 0 1-.282 1.733q-.21.644-.65 1.43-.317.566-.468.699a.5.5 0 0 1-.337.132.5.5 0 0 1-.362-.147.48.48 0 0 1-.146-.351q0-.147.117-.337.527-.864.766-1.621a4.965 4.965 0 0 0 0-3.071q-.239-.758-.766-1.622a.7.7 0 0 1-.117-.337.48.48 0 0 1 .146-.351.5.5 0 0 1 .361-.147q.181 0 .318.117.195.167.517.767.465.864.635 1.421.27.864.269 1.685M55.962 93.589l.244-.85h.513q.312 0 .43.073.234.151.234.435a.5.5 0 0 1-.127.347.42.42 0 0 1-.298.146q-.122.523-.308.835.396 0 .508.073.24.147.24.43a.47.47 0 0 1-.157.361q-.15.137-.513.137h-.595l-.117-.156a1.4 1.4 0 0 1-.42.215 2.6 2.6 0 0 1-.723.088q-.884 0-1.372-.45a1.5 1.5 0 0 1-.483-1.147q0-.474.239-.903.244-.435.742-.728a3.3 3.3 0 0 1-.283-.552 1.4 1.4 0 0 1-.064-.424q0-.606.46-1.06a1.49 1.49 0 0 1 1.43-.415q.176.039.361.127a.7.7 0 0 1 .264-.078q.205 0 .352.151a.48.48 0 0 1 .146.352.46.46 0 0 1-.083.283q-.078.107-.322.24l-.42.224a2 2 0 0 0-.386-.288.6.6 0 0 0-.259-.054.52.52 0 0 0-.385.156.48.48 0 0 0-.157.352q0 .17.288.59zm-1.387-.254q-.555.258-.556.786 0 .278.19.44.19.16.664.16.303 0 .557-.146zM63.696 98.58h-5.498q-.36 0-.513-.138a.46.46 0 0 1-.156-.36q0-.225.156-.367.152-.137.513-.137h5.498q.357 0 .508.137a.47.47 0 0 1 .156.366q0 .22-.151.356-.15.142-.513.142M69.028 93.193h-4.18v-.913h4.18zM75.034 93.193h-4.18v-.913h4.18zM81.04 93.193h-4.18v-.913h4.18zM84.59 93.145q0-.855.283-1.729.21-.645.65-1.435.317-.567.468-.694a.5.5 0 0 1 .337-.132.5.5 0 0 1 .361.147.48.48 0 0 1 .147.351.7.7 0 0 1-.117.337 7.7 7.7 0 0 0-.772 1.621 5.06 5.06 0 0 0 0 3.072q.244.756.772 1.62.117.192.117.338a.48.48 0 0 1-.147.351.5.5 0 0 1-.36.147.47.47 0 0 1-.318-.117q-.195-.171-.518-.767-.464-.864-.635-1.426a5.6 5.6 0 0 1-.268-1.684M91.382 93.145a5.6 5.6 0 0 1-.283 1.733q-.21.644-.65 1.43-.317.566-.468.699a.5.5 0 0 1-.337.132.5.5 0 0 1-.362-.147.48.48 0 0 1-.146-.351q0-.147.117-.337.528-.864.766-1.621a4.965 4.965 0 0 0 0-3.071q-.238-.758-.766-1.622a.7.7 0 0 1-.117-.337.48.48 0 0 1 .146-.351.5.5 0 0 1 .362-.147q.18 0 .317.117.196.167.517.767.465.864.635 1.421.27.864.269 1.685M98.003 93.589l.244-.85h.513q.312 0 .43.073.234.151.234.435a.5.5 0 0 1-.127.347.42.42 0 0 1-.298.146q-.122.523-.308.835.396 0 .508.073.24.147.24.43a.47.47 0 0 1-.157.361q-.15.137-.513.137h-.595l-.117-.156a1.4 1.4 0 0 1-.42.215q-.299.087-.723.088-.884 0-1.372-.45a1.5 1.5 0 0 1-.483-1.147q0-.474.239-.903.244-.435.742-.728a3.3 3.3 0 0 1-.283-.552 1.4 1.4 0 0 1-.064-.424q0-.606.46-1.06a1.49 1.49 0 0 1 1.43-.415q.176.039.361.127a.7.7 0 0 1 .264-.078q.205 0 .352.151a.48.48 0 0 1 .146.352.46.46 0 0 1-.083.283q-.079.107-.322.24l-.42.224a2 2 0 0 0-.386-.288.6.6 0 0 0-.259-.054.52.52 0 0 0-.385.156.48.48 0 0 0-.157.352q0 .17.288.59zm-1.387-.254q-.555.258-.556.786 0 .278.19.44.19.16.664.16.302 0 .557-.146zM101.821 88.955l3.213 6.885q.024.054.083.249.03.113.029.17 0 .176-.141.308a.47.47 0 0 1-.342.132.48.48 0 0 1-.303-.088q-.112-.087-.234-.342l-3.208-6.89q-.122-.258-.122-.385a.46.46 0 0 1 .146-.332.5.5 0 0 1 .352-.146q.18 0 .293.087.112.089.234.352M110.015 93.589l.244-.85h.512q.313 0 .43.073.235.151.235.435a.5.5 0 0 1-.127.347.42.42 0 0 1-.298.146q-.122.523-.308.835.396 0 .508.073.239.147.239.43a.47.47 0 0 1-.156.361q-.151.137-.513.137h-.595l-.118-.156a1.4 1.4 0 0 1-.42.215 2.6 2.6 0 0 1-.722.088q-.884 0-1.372-.45a1.5 1.5 0 0 1-.484-1.147q0-.474.24-.903.243-.435.742-.728a3.3 3.3 0 0 1-.283-.552 1.4 1.4 0 0 1-.064-.424q0-.606.459-1.06a1.49 1.49 0 0 1 1.431-.415q.175.039.361.127a.7.7 0 0 1 .264-.078.47.47 0 0 1 .351.151.48.48 0 0 1 .147.352.47.47 0 0 1-.083.283q-.078.107-.323.24l-.419.224a2 2 0 0 0-.386-.288.6.6 0 0 0-.259-.054.53.53 0 0 0-.386.156.48.48 0 0 0-.156.352q0 .17.288.59zm-1.387-.254q-.557.258-.557.786 0 .278.191.44.19.16.664.16.303 0 .556-.146zM113.833 88.955l3.213 6.885q.024.054.083.249a.8.8 0 0 1 .029.17q0 .176-.141.308a.47.47 0 0 1-.342.132.48.48 0 0 1-.303-.088q-.113-.087-.234-.342l-3.208-6.89q-.122-.258-.122-.385 0-.185.146-.332a.5.5 0 0 1 .352-.146q.18 0 .293.087.113.089.234.352M121.489 90.22v5.957q0 .513-.024.61a.46.46 0 0 1-.176.25.498.498 0 0 1-.605 0 .46.46 0 0 1-.171-.26q-.025-.087-.025-.6V90.22q0-.514.025-.61a.498.498 0 0 1 .776-.249q.137.102.176.253.024.097.024.606M128.032 93.589l.244-.85h.513q.313 0 .43.073.234.151.234.435a.5.5 0 0 1-.127.347.42.42 0 0 1-.298.146 3 3 0 0 1-.307.835q.395 0 .508.073.239.147.239.43a.47.47 0 0 1-.156.361q-.151.137-.513.137h-.596l-.117-.156a1.4 1.4 0 0 1-.42.215 2.6 2.6 0 0 1-.723.088q-.883 0-1.372-.45a1.5 1.5 0 0 1-.483-1.147q0-.474.239-.903.244-.435.742-.728a3.4 3.4 0 0 1-.283-.552 1.4 1.4 0 0 1-.063-.424q0-.606.459-1.06a1.49 1.49 0 0 1 1.43-.415q.176.039.362.127a.7.7 0 0 1 .263-.078q.205 0 .352.151a.48.48 0 0 1 .146.352.46.46 0 0 1-.083.283q-.078.107-.322.24l-.42.224a2 2 0 0 0-.386-.288.6.6 0 0 0-.258-.054.53.53 0 0 0-.386.156.48.48 0 0 0-.156.352q0 .17.288.59zm-1.386-.254q-.558.258-.557.786 0 .278.19.44.191.16.664.16.303 0 .557-.146zM134.038 93.589l.244-.85h.513q.312 0 .43.073.234.151.234.435a.5.5 0 0 1-.127.347.42.42 0 0 1-.298.146 3 3 0 0 1-.307.835q.395 0 .507.073.24.147.24.43a.46.46 0 0 1-.157.361q-.151.137-.512.137h-.596l-.117-.156a1.4 1.4 0 0 1-.42.215q-.298.087-.723.088-.883 0-1.372-.45a1.5 1.5 0 0 1-.483-1.147q0-.474.239-.903.244-.435.742-.728a3.4 3.4 0 0 1-.283-.552 1.4 1.4 0 0 1-.063-.424q0-.606.459-1.06a1.48 1.48 0 0 1 1.43-.415q.176.039.361.127a.7.7 0 0 1 .264-.078q.205 0 .352.151a.48.48 0 0 1 .146.352.46.46 0 0 1-.083.283q-.078.107-.322.24l-.42.224a2 2 0 0 0-.386-.288.6.6 0 0 0-.259-.054.52.52 0 0 0-.385.156.48.48 0 0 0-.157.352q0 .17.289.59zm-1.387-.254q-.556.258-.556.786 0 .278.19.44.19.16.664.16.303 0 .557-.146zM141.099 93.193h-4.18v-.913h4.18zM146.05 93.589l.244-.85h.513q.312 0 .429.073.235.151.235.435a.5.5 0 0 1-.127.347.42.42 0 0 1-.298.146q-.122.523-.308.835.396 0 .508.073.24.147.239.43a.47.47 0 0 1-.156.361q-.151.137-.513.137h-.595l-.117-.156a1.4 1.4 0 0 1-.42.215q-.299.087-.723.088-.884 0-1.372-.45a1.5 1.5 0 0 1-.484-1.147q0-.474.24-.903.244-.435.742-.728a3.3 3.3 0 0 1-.283-.552 1.4 1.4 0 0 1-.064-.424q0-.606.459-1.06a1.49 1.49 0 0 1 1.431-.415q.176.039.361.127a.7.7 0 0 1 .264-.078.47.47 0 0 1 .351.151.48.48 0 0 1 .147.352.47.47 0 0 1-.083.283q-.078.107-.322.24l-.42.224a2 2 0 0 0-.386-.288.6.6 0 0 0-.259-.054.53.53 0 0 0-.386.156.48.48 0 0 0-.156.352q0 .17.288.59zm-1.387-.254q-.557.258-.557.786 0 .278.191.44.19.16.664.16.303 0 .557-.146zM152.056 93.589l.244-.85h.512q.313 0 .43.073.235.151.235.435a.5.5 0 0 1-.127.347.42.42 0 0 1-.298.146q-.123.523-.308.835.396 0 .508.073.239.147.239.43a.47.47 0 0 1-.156.361q-.151.137-.513.137h-.595l-.118-.156a1.4 1.4 0 0 1-.42.215 2.6 2.6 0 0 1-.722.088q-.884 0-1.372-.45a1.5 1.5 0 0 1-.484-1.147q0-.474.24-.903.244-.435.742-.728a3.3 3.3 0 0 1-.283-.552 1.4 1.4 0 0 1-.064-.424q0-.606.459-1.06a1.49 1.49 0 0 1 1.431-.415q.175.039.361.127a.7.7 0 0 1 .264-.078.47.47 0 0 1 .351.151.48.48 0 0 1 .147.352.47.47 0 0 1-.083.283q-.078.107-.322.24l-.42.224a2 2 0 0 0-.386-.288.6.6 0 0 0-.259-.054.53.53 0 0 0-.386.156.48.48 0 0 0-.156.352q0 .17.288.59zm-1.387-.254q-.557.258-.557.786 0 .278.191.44.19.16.664.16.303 0 .556-.146zM159.116 93.193h-4.179v-.913h4.179zM165.122 93.193h-4.18v-.913h4.18zM169.8 90.718q0 .585-.415 1-.411.41-.996.41a1.37 1.37 0 0 1-1.001-.41 1.36 1.36 0 0 1-.415-1q0-.586.415-1.001.414-.415 1.001-.415.585 0 .996.415.415.41.415 1m-.615 0a.76.76 0 0 0-.235-.562.77.77 0 0 0-.561-.234.77.77 0 0 0-.567.234.76.76 0 0 0-.229.562q0 .327.234.561a.77.77 0 0 0 .562.235.77.77 0 0 0 .561-.235.77.77 0 0 0 .235-.561m1.796 1.489-3.691 1.196a.8.8 0 0 1-.2.044.27.27 0 0 1-.2-.093.326.326 0 0 1-.02-.42q.049-.063.23-.121l3.691-1.197a.8.8 0 0 1 .2-.044q.117 0 .2.098a.31.31 0 0 1 .088.224.3.3 0 0 1-.068.191q-.049.063-.23.122m.088 2.105q0 .585-.415 1a1.37 1.37 0 0 1-1.001.41q-.585 0-1.001-.414a1.36 1.36 0 0 1-.415-.997q0-.585.415-1a1.37 1.37 0 0 1 1.001-.416q.587 0 1.001.416.415.41.415 1m-.62 0a.76.76 0 0 0-.234-.562.77.77 0 0 0-.562-.234.77.77 0 0 0-.561.234.76.76 0 0 0-.235.561q0 .328.235.562.234.23.561.23a.78.78 0 0 0 .562-.23.77.77 0 0 0 .234-.562M177.134 93.193h-4.18v-.913h4.18zM183.14 93.193h-4.18v-.913h4.18zM189.146 93.193h-4.18v-.913h4.18zM192.695 93.145q0-.855.284-1.729.209-.645.649-1.435.318-.567.469-.694a.5.5 0 0 1 .337-.132q.214 0 .361.147a.48.48 0 0 1 .146.351.7.7 0 0 1-.117.337q-.527.864-.771 1.621a5.05 5.05 0 0 0 0 3.072q.244.756.771 1.62.117.192.117.338a.48.48 0 0 1-.146.351.5.5 0 0 1-.361.147.47.47 0 0 1-.318-.117q-.195-.171-.517-.767-.464-.864-.635-1.426a5.6 5.6 0 0 1-.269-1.684M199.487 93.145q0 .855-.283 1.733-.21.644-.649 1.43-.318.566-.469.699a.5.5 0 0 1-.337.132.5.5 0 0 1-.361-.147.48.48 0 0 1-.147-.351q0-.147.117-.337a7.5 7.5 0 0 0 .767-1.621 4.97 4.97 0 0 0 0-3.072 7.5 7.5 0 0 0-.767-1.62.7.7 0 0 1-.117-.338q0-.205.147-.351a.5.5 0 0 1 .361-.147q.18 0 .317.117.196.167.518.767.464.864.635 1.421.268.864.268 1.685M206.953 92.017a.5.5 0 0 1 .361.146.48.48 0 0 1 .147.352q0 .21-.22.468a3.5 3.5 0 0 1-.556.547 1.18 1.18 0 0 1-.708.244 1.2 1.2 0 0 1-.562-.141q-.279-.142-.698-.537-.415-.4-.532-.4a.2.2 0 0 0-.113.038 2.2 2.2 0 0 0-.351.337q-.24.27-.337.327a.4.4 0 0 1-.196.054.5.5 0 0 1-.361-.151.48.48 0 0 1-.151-.352q0-.297.508-.776.507-.48.996-.479.269 0 .551.142.283.137.748.596.238.24.351.302a.3.3 0 0 0 .132.04.2.2 0 0 0 .122-.04q.122-.082.391-.4.17-.205.263-.259a.4.4 0 0 1 .215-.058M67.974 108.589l.244-.85h.513q.312 0 .43.073a.49.49 0 0 1 .233.435.5.5 0 0 1-.126.347.42.42 0 0 1-.298.146q-.122.523-.308.835.396 0 .508.073.24.147.24.43a.46.46 0 0 1-.157.361q-.152.137-.513.137h-.596l-.117-.156a1.4 1.4 0 0 1-.42.215q-.297.088-.722.088-.885 0-1.372-.45a1.5 1.5 0 0 1-.484-1.147q0-.474.24-.903.243-.435.742-.728a3.3 3.3 0 0 1-.283-.552 1.4 1.4 0 0 1-.064-.424q0-.606.459-1.06a1.49 1.49 0 0 1 1.43-.415q.177.039.362.127a.7.7 0 0 1 .264-.078q.205 0 .351.151a.48.48 0 0 1 .147.352.46.46 0 0 1-.083.283q-.079.108-.322.239l-.42.225a2 2 0 0 0-.386-.288.6.6 0 0 0-.259-.054.52.52 0 0 0-.386.156.48.48 0 0 0-.156.352q0 .171.288.591zm-1.387-.254q-.557.259-.557.786 0 .279.19.44.191.16.665.161.303 0 .556-.147zM73.98 108.589l.244-.85h.512q.313 0 .43.073a.49.49 0 0 1 .234.435.5.5 0 0 1-.127.347.42.42 0 0 1-.297.146q-.122.523-.308.835.396 0 .508.073.24.147.239.43a.46.46 0 0 1-.156.361q-.152.137-.513.137h-.596l-.117-.156a1.4 1.4 0 0 1-.42.215q-.298.088-.722.088-.885 0-1.372-.45a1.5 1.5 0 0 1-.484-1.147q0-.474.24-.903.243-.435.742-.728a3.3 3.3 0 0 1-.284-.552 1.4 1.4 0 0 1-.063-.424q0-.606.459-1.06a1.49 1.49 0 0 1 1.43-.415q.177.039.362.127a.7.7 0 0 1 .264-.078q.205 0 .351.151a.48.48 0 0 1 .147.352.46.46 0 0 1-.083.283q-.078.108-.323.239l-.42.225a2 2 0 0 0-.385-.288.6.6 0 0 0-.26-.054.53.53 0 0 0-.385.156.48.48 0 0 0-.156.352q0 .171.288.591zm-1.387-.254q-.557.259-.557.786 0 .279.19.44t.665.161q.302 0 .556-.147z"/><path fill="brown" d="m107.827 103.955 3.213 6.885q.024.054.083.249.03.113.029.171a.4.4 0 0 1-.141.307.47.47 0 0 1-.342.132.48.48 0 0 1-.303-.088q-.112-.087-.234-.341l-3.208-6.89q-.123-.259-.122-.386a.46.46 0 0 1 .146-.332.49.49 0 0 1 .352-.146.46.46 0 0 1 .293.088q.113.087.234.351M115.483 105.22v5.957q0 .513-.024.61a.45.45 0 0 1-.176.249.5.5 0 0 1-.605 0 .46.46 0 0 1-.171-.259q-.024-.087-.025-.6v-5.957q0-.513.025-.611a.47.47 0 0 1 .171-.249.5.5 0 0 1 .781.254q.024.098.024.606M121.489 105.22v5.957q0 .513-.024.61a.45.45 0 0 1-.176.249.5.5 0 0 1-.605 0 .46.46 0 0 1-.171-.259q-.025-.087-.025-.6v-5.957q0-.513.025-.611a.47.47 0 0 1 .171-.249.5.5 0 0 1 .781.254q.024.098.024.606M127.495 105.22v5.957q0 .513-.024.61a.45.45 0 0 1-.176.249.48.48 0 0 1-.298.103.5.5 0 0 1-.308-.103.46.46 0 0 1-.17-.259q-.025-.087-.025-.6v-5.957q0-.513.025-.611a.47.47 0 0 1 .17-.249.504.504 0 0 1 .606 0q.137.103.176.254.024.098.024.606M115.483 120.22v5.957q0 .513-.024.61a.45.45 0 0 1-.176.249.5.5 0 0 1-.605 0 .46.46 0 0 1-.171-.259q-.024-.087-.025-.6v-5.957q0-.513.025-.611a.47.47 0 0 1 .171-.249.5.5 0 0 1 .781.254q.024.098.024.606M121.489 120.22v5.957q0 .513-.024.61a.45.45 0 0 1-.176.249.5.5 0 0 1-.605 0 .46.46 0 0 1-.171-.259q-.025-.087-.025-.6v-5.957q0-.513.025-.611a.47.47 0 0 1 .171-.249.5.5 0 0 1 .781.254q.024.098.024.606M127.495 120.22v5.957q0 .513-.024.61a.45.45 0 0 1-.176.249.48.48 0 0 1-.298.103.5.5 0 0 1-.308-.103.46.46 0 0 1-.17-.259q-.025-.087-.025-.6v-5.957q0-.513.025-.611a.47.47 0 0 1 .17-.249.504.504 0 0 1 .606 0q.137.103.176.254.024.098.024.606M115.483 135.22v5.957q0 .513-.024.61a.45.45 0 0 1-.176.249.5.5 0 0 1-.605 0 .46.46 0 0 1-.171-.259q-.024-.087-.025-.6v-5.957q0-.513.025-.611a.47.47 0 0 1 .171-.249.5.5 0 0 1 .781.254q.024.097.024.606M121.489 135.22v5.957q0 .513-.024.61a.45.45 0 0 1-.176.249.5.5 0 0 1-.605 0 .46.46 0 0 1-.171-.259q-.025-.087-.025-.6v-5.957q0-.513.025-.611a.47.47 0 0 1 .171-.249.5.5 0 0 1 .781.254q.024.097.024.606M127.495 135.22v5.957q0 .513-.024.61a.45.45 0 0 1-.176.249.48.48 0 0 1-.298.103.5.5 0 0 1-.308-.103.46.46 0 0 1-.17-.259q-.025-.087-.025-.6v-5.957q0-.513.025-.611a.47.47 0 0 1 .17-.249.504.504 0 0 1 .606 0q.137.103.176.254.024.097.024.606M115.483 150.22v5.957q0 .513-.024.61a.45.45 0 0 1-.176.249.5.5 0 0 1-.605 0 .46.46 0 0 1-.171-.259q-.024-.087-.025-.6v-5.957q0-.513.025-.611a.47.47 0 0 1 .171-.249.5.5 0 0 1 .781.254q.024.097.024.606M121.489 150.22v5.957q0 .513-.024.61a.45.45 0 0 1-.176.249.5.5 0 0 1-.605 0 .46.46 0 0 1-.171-.259q-.025-.087-.025-.6v-5.957q0-.513.025-.611a.47.47 0 0 1 .171-.249.5.5 0 0 1 .781.254q.024.097.024.606M127.495 150.22v5.957q0 .513-.024.61a.45.45 0 0 1-.176.249.48.48 0 0 1-.298.103.5.5 0 0 1-.308-.103.46.46 0 0 1-.17-.259q-.025-.087-.025-.6v-5.957q0-.513.025-.611a.47.47 0 0 1 .17-.249.504.504 0 0 1 .606 0q.137.103.176.254.024.097.024.606M78.706 165.229h1.338l-1.44 2.714q-.127.24-.318.24a.32.32 0 0 1-.22-.083.25.25 0 0 1-.088-.186q0-.073.035-.2zM93.052 164.193h-4.18v-.913h4.18zM99.106 163.285H94.83q-.36 0-.517-.137a.48.48 0 0 1-.152-.366q0-.22.151-.356.157-.142.518-.142h4.277q.362 0 .513.142a.46.46 0 0 1 .156.361.46.46 0 0 1-.156.361q-.15.138-.513.137m0 1.885H94.83q-.36 0-.517-.137a.46.46 0 0 1-.152-.361q0-.225.151-.361.157-.142.518-.142h4.277q.362 0 .513.142a.46.46 0 0 1 .156.361q0 .225-.156.361-.15.137-.513.137M105.063 164.193h-4.179v-.913h4.179zM110.859 163.017a.5.5 0 0 1 .362.146.48.48 0 0 1 .146.352q0 .21-.22.468-.331.387-.556.547a1.18 1.18 0 0 1-.708.244q-.283 0-.562-.141-.278-.143-.698-.537-.415-.4-.532-.401a.2.2 0 0 0-.112.039q-.108.069-.352.337-.24.268-.337.327a.4.4 0 0 1-.195.054.5.5 0 0 1-.362-.151.48.48 0 0 1-.151-.352q0-.297.508-.776.507-.479.996-.479.269 0 .552.142.283.137.747.596.239.239.351.302a.3.3 0 0 0 .132.039.2.2 0 0 0 .122-.039q.123-.082.391-.4.171-.205.264-.259a.4.4 0 0 1 .214-.058M127.754 166.073a.63.63 0 0 1-.2.474q-.201.19-.552.19t-.552-.19a.63.63 0 0 1-.2-.474q0-.283.2-.473.201-.19.552-.191.351 0 .552.191.2.19.2.473M135.093 164.193h-4.18v-.913h4.18zM138.989 161.542l-1.177 1.416q-.16.195-.258.254a.5.5 0 0 1-.738-.454q0-.171.22-.44l1.953-2.358 1.968 2.358q.142.172.181.259a.4.4 0 0 1 .044.186q0 .21-.152.361a.48.48 0 0 1-.351.147.45.45 0 0 1-.235-.059 1.2 1.2 0 0 1-.258-.249zM147.104 164.193h-4.179v-.913h4.179zM159.79 169.579h-5.498q-.362 0-.513-.137a.46.46 0 0 1-.156-.361.47.47 0 0 1 .156-.366q.151-.137.513-.137h5.498q.357 0 .508.137a.47.47 0 0 1 .156.366q0 .22-.151.357-.151.141-.513.141"/><path fill="#222" d="M305.952 124.911a.65.65 0 0 1-.482-.181q-.171-.18-.171-.521 0-.321.171-.512.171-.19.482-.19.292 0 .463.18.18.18.181.522 0 .33-.181.511a.59.59 0 0 1-.463.191m-2.683 0a.66.66 0 0 1-.483-.181q-.171-.18-.171-.521 0-.321.171-.512.171-.19.483-.19.291 0 .462.18.181.18.181.522 0 .33-.181.511a.59.59 0 0 1-.462.191M312.99 122.404a.65.65 0 0 1-.483-.181q-.17-.18-.17-.521 0-.32.17-.511.171-.19.483-.191.291 0 .462.18.181.181.181.522 0 .33-.181.521a.6.6 0 0 1-.462.181m-2.684 0a.65.65 0 0 1-.482-.181q-.171-.18-.171-.521 0-.32.171-.511.171-.19.482-.191.292 0 .463.18.18.181.181.522 0 .33-.181.521a.6.6 0 0 1-.463.181M320.027 122.404a.65.65 0 0 1-.482-.181q-.171-.18-.171-.521 0-.32.171-.511.171-.19.482-.191.292 0 .463.18.18.181.181.522 0 .33-.181.521a.6.6 0 0 1-.463.181m-2.683 0a.65.65 0 0 1-.483-.181q-.17-.18-.17-.521 0-.32.17-.511.171-.19.483-.191.291 0 .462.18.181.181.181.522 0 .33-.181.521a.6.6 0 0 1-.462.181M327.065 122.404a.65.65 0 0 1-.482-.181q-.171-.18-.171-.521 0-.32.171-.511.17-.19.482-.191.291 0 .462.18.181.181.181.522 0 .33-.181.521a.6.6 0 0 1-.462.181m-2.684 0a.65.65 0 0 1-.482-.181q-.171-.18-.171-.521 0-.32.171-.511.171-.19.482-.191.292 0 .463.18.18.181.181.522 0 .33-.181.521a.6.6 0 0 1-.463.181M334.103 122.404a.65.65 0 0 1-.483-.181q-.171-.18-.171-.521 0-.32.171-.511.171-.19.483-.191.291 0 .462.18.181.181.181.522 0 .33-.181.521a.6.6 0 0 1-.462.181m-2.684 0a.65.65 0 0 1-.482-.181q-.171-.18-.171-.521 0-.32.171-.511.17-.19.482-.191.291 0 .462.18.181.181.181.522 0 .33-.181.521a.6.6 0 0 1-.462.181M341.14 122.404a.65.65 0 0 1-.482-.181q-.171-.18-.171-.521 0-.32.171-.511.17-.19.482-.191a.6.6 0 0 1 .463.18q.18.181.18.522 0 .33-.18.521a.6.6 0 0 1-.463.181m-2.683 0a.65.65 0 0 1-.483-.181q-.171-.18-.171-.521 0-.32.171-.511.171-.19.483-.191.291 0 .462.18.181.181.181.522 0 .33-.181.521a.6.6 0 0 1-.462.181M348.178 122.404a.65.65 0 0 1-.483-.181q-.171-.18-.171-.521 0-.32.171-.511.171-.19.483-.191.291 0 .462.18.181.181.181.522 0 .33-.181.521a.6.6 0 0 1-.462.181m-2.684 0a.65.65 0 0 1-.482-.181q-.171-.18-.171-.521 0-.32.171-.511.17-.19.482-.191.292 0 .462.18.181.181.181.522 0 .33-.181.521a.6.6 0 0 1-.462.181M355.215 122.404a.65.65 0 0 1-.482-.181q-.171-.18-.171-.521 0-.32.171-.511.171-.19.482-.191.292 0 .463.18.18.181.181.522 0 .33-.181.521a.6.6 0 0 1-.463.181m-2.683 0a.65.65 0 0 1-.483-.181q-.171-.18-.171-.521 0-.32.171-.511.171-.19.483-.191.291 0 .462.18.181.181.181.522 0 .33-.181.521a.6.6 0 0 1-.462.181M362.253 124.911a.66.66 0 0 1-.483-.181q-.17-.18-.17-.521 0-.321.17-.512.171-.19.483-.19.291 0 .462.18.181.18.181.522 0 .33-.181.511a.59.59 0 0 1-.462.191m-2.684 0a.65.65 0 0 1-.482-.181q-.171-.18-.171-.521 0-.321.171-.512.171-.19.482-.19.292 0 .463.18.18.18.181.522 0 .33-.181.511a.59.59 0 0 1-.463.191M369.29 124.911a.65.65 0 0 1-.482-.181q-.171-.18-.171-.521 0-.321.171-.512.171-.19.482-.19.292 0 .463.18.18.18.181.522 0 .33-.181.511a.59.59 0 0 1-.463.191m-2.683 0a.66.66 0 0 1-.483-.181q-.17-.18-.17-.521 0-.321.17-.512.171-.19.483-.19.291 0 .462.18.181.18.181.522 0 .33-.181.511a.59.59 0 0 1-.462.191M373.644 124.911a.65.65 0 0 1-.482-.181q-.171-.18-.171-.521 0-.321.171-.512.171-.19.482-.19.292 0 .463.18.18.18.181.522 0 .33-.181.511a.59.59 0 0 1-.463.191M186.314 135.94a.66.66 0 0 1-.483-.18q-.171-.18-.171-.522 0-.32.171-.511.171-.19.483-.19.291 0 .462.18.181.18.181.521 0 .332-.181.512a.59.59 0 0 1-.462.19m-2.684 0a.65.65 0 0 1-.482-.18q-.171-.18-.171-.522 0-.32.171-.511.17-.19.482-.19.292 0 .462.18.181.18.181.521 0 .332-.181.512a.59.59 0 0 1-.462.19M193.351 135.94a.65.65 0 0 1-.482-.18q-.171-.18-.171-.522 0-.32.171-.511.171-.19.482-.19.292 0 .463.18.18.18.18.521 0 .332-.18.512a.59.59 0 0 1-.463.19m-2.683 0a.66.66 0 0 1-.483-.18q-.171-.18-.171-.522 0-.32.171-.511.171-.19.483-.19.291 0 .462.18.181.18.181.521 0 .332-.181.512a.59.59 0 0 1-.462.19M200.389 135.94a.66.66 0 0 1-.483-.18q-.171-.18-.171-.522 0-.32.171-.511.171-.19.483-.19.291 0 .462.18.181.18.181.521 0 .332-.181.512a.59.59 0 0 1-.462.19m-2.684 0a.65.65 0 0 1-.482-.18q-.171-.18-.171-.522 0-.32.171-.511.171-.19.482-.19.292 0 .463.18.18.18.18.521 0 .332-.18.512a.59.59 0 0 1-.463.19M207.426 135.94a.65.65 0 0 1-.482-.18q-.171-.18-.171-.522 0-.32.171-.511.171-.19.482-.19.292 0 .463.18.18.18.181.521 0 .332-.181.512a.59.59 0 0 1-.463.19m-2.683 0a.66.66 0 0 1-.483-.18q-.171-.18-.171-.522 0-.32.171-.511.171-.19.483-.19.291 0 .462.18.181.18.181.521 0 .332-.181.512a.59.59 0 0 1-.462.19M214.464 135.94a.66.66 0 0 1-.483-.18q-.17-.18-.17-.522 0-.32.17-.511.171-.19.483-.19.291 0 .462.18.181.18.181.521 0 .332-.181.512a.59.59 0 0 1-.462.19m-2.684 0a.65.65 0 0 1-.482-.18q-.171-.18-.171-.522 0-.32.171-.511.171-.19.482-.19.292 0 .463.18.18.18.181.521 0 .332-.181.512a.59.59 0 0 1-.463.19M221.502 135.94a.65.65 0 0 1-.483-.18q-.171-.18-.171-.522 0-.32.171-.511.171-.19.483-.19.291 0 .462.18.18.18.181.521 0 .332-.181.512a.59.59 0 0 1-.462.19m-2.684 0a.66.66 0 0 1-.483-.18q-.17-.18-.17-.522 0-.32.17-.511.171-.19.483-.19.291 0 .462.18.181.18.181.521 0 .332-.181.512a.59.59 0 0 1-.462.19M228.539 135.94a.65.65 0 0 1-.482-.18q-.171-.18-.171-.522 0-.32.171-.511.17-.19.482-.19.292 0 .462.18.181.18.181.521 0 .332-.181.512a.59.59 0 0 1-.462.19m-2.684 0a.65.65 0 0 1-.482-.18q-.171-.18-.171-.522 0-.32.171-.511.171-.19.482-.19.292 0 .463.18.18.18.181.521 0 .332-.181.512a.59.59 0 0 1-.463.19M235.577 135.94a.66.66 0 0 1-.483-.18q-.171-.18-.171-.522 0-.32.171-.511.171-.19.483-.19.291 0 .462.18.181.18.181.521 0 .332-.181.512a.59.59 0 0 1-.462.19m-2.684 0a.65.65 0 0 1-.482-.18q-.171-.18-.171-.522 0-.32.171-.511.17-.19.482-.19.291 0 .462.18.181.18.181.521 0 .332-.181.512a.59.59 0 0 1-.462.19M242.614 135.94a.65.65 0 0 1-.482-.18q-.171-.18-.171-.522 0-.32.171-.511.171-.19.482-.19.292 0 .463.18.18.18.18.521 0 .332-.18.512a.59.59 0 0 1-.463.19m-2.683 0a.66.66 0 0 1-.483-.18q-.171-.18-.171-.522 0-.32.171-.511.171-.19.483-.19.291 0 .462.18.181.18.181.521 0 .332-.181.512a.59.59 0 0 1-.462.19M249.652 133.434a.66.66 0 0 1-.483-.181q-.171-.18-.171-.521 0-.321.171-.512.171-.19.483-.19.291 0 .462.18.181.18.181.522 0 .33-.181.521a.6.6 0 0 1-.462.181M256.689 133.434a.65.65 0 0 1-.482-.181q-.171-.18-.171-.521 0-.321.171-.512.171-.19.482-.19.292 0 .463.18.18.18.181.522 0 .33-.181.521a.6.6 0 0 1-.463.181m-2.683 0a.66.66 0 0 1-.483-.181q-.171-.18-.171-.521 0-.321.171-.512.171-.19.483-.19.291 0 .462.18.181.18.181.522 0 .33-.181.521a.6.6 0 0 1-.462.181M263.727 133.434a.66.66 0 0 1-.483-.181q-.17-.18-.17-.521 0-.321.17-.512.171-.19.483-.19.291 0 .462.18.181.18.181.522 0 .33-.181.521a.6.6 0 0 1-.462.181m-2.684 0a.65.65 0 0 1-.482-.181q-.171-.18-.171-.521 0-.321.171-.512.171-.19.482-.19.292 0 .463.18.18.18.181.522 0 .33-.181.521a.6.6 0 0 1-.463.181M270.764 130.927a.65.65 0 0 1-.482-.181q-.171-.18-.171-.521 0-.32.171-.511.171-.19.482-.191.292 0 .463.181.18.18.181.521 0 .331-.181.521a.6.6 0 0 1-.463.181m-2.683 2.507a.66.66 0 0 1-.483-.181q-.17-.18-.17-.521 0-.321.17-.512.171-.19.483-.19.291 0 .462.18.181.18.181.522 0 .33-.181.521a.6.6 0 0 1-.462.181M277.802 130.927a.65.65 0 0 1-.482-.181q-.171-.18-.171-.521 0-.32.171-.511.17-.19.482-.191.291 0 .462.181.181.18.181.521 0 .331-.181.521a.6.6 0 0 1-.462.181m-2.684 0a.65.65 0 0 1-.482-.181q-.171-.18-.171-.521 0-.32.171-.511.171-.19.482-.191.292 0 .463.181.18.18.181.521 0 .331-.181.521a.6.6 0 0 1-.463.181M284.84 128.42a.66.66 0 0 1-.483-.18q-.171-.182-.171-.522 0-.32.171-.511.171-.19.483-.191.291 0 .462.181.181.18.181.521 0 .331-.181.522a.6.6 0 0 1-.462.18m-2.684 2.507a.65.65 0 0 1-.482-.181q-.171-.18-.171-.521 0-.32.171-.511.17-.19.482-.191.291 0 .462.181.181.18.181.521 0 .331-.181.521a.6.6 0 0 1-.462.181M291.877 128.42a.65.65 0 0 1-.482-.18q-.171-.182-.171-.522 0-.32.171-.511.17-.19.482-.191.292 0 .463.181.18.18.18.521 0 .331-.18.522a.6.6 0 0 1-.463.18m-2.683 0a.66.66 0 0 1-.483-.18q-.171-.182-.171-.522 0-.32.171-.511.171-.19.483-.191.291 0 .462.181.181.18.181.521 0 .331-.181.522a.6.6 0 0 1-.462.18M296.231 128.42a.65.65 0 0 1-.482-.18q-.171-.182-.171-.522 0-.32.171-.511.17-.19.482-.191.293 0 .462.181.181.18.181.521 0 .331-.181.522a.6.6 0 0 1-.462.18M376.328 128.42a.65.65 0 0 1-.482-.18q-.171-.182-.171-.522 0-.32.171-.511.17-.19.482-.191.291 0 .462.181.181.18.181.521 0 .331-.181.522a.6.6 0 0 1-.462.18M383.366 128.42a.66.66 0 0 1-.483-.18q-.171-.182-.171-.522 0-.32.171-.511.171-.19.483-.191.291 0 .462.181.181.18.181.521 0 .331-.181.522a.6.6 0 0 1-.462.18m-2.684 0a.65.65 0 0 1-.482-.18q-.171-.182-.171-.522 0-.32.171-.511.17-.19.482-.191.291 0 .462.181.181.18.181.521 0 .331-.181.522a.6.6 0 0 1-.462.18M390.403 130.927a.65.65 0 0 1-.482-.181q-.171-.18-.171-.521 0-.32.171-.511.17-.19.482-.191.292 0 .462.181.181.18.181.521 0 .331-.181.521a.6.6 0 0 1-.462.181m-2.683 0a.65.65 0 0 1-.483-.181q-.171-.18-.171-.521 0-.32.171-.511.171-.19.483-.191.291 0 .462.181.181.18.181.521 0 .331-.181.521a.6.6 0 0 1-.462.181M397.441 130.927a.65.65 0 0 1-.483-.181q-.171-.18-.171-.521 0-.32.171-.511.171-.19.483-.191.291 0 .462.181.181.18.181.521 0 .331-.181.521a.6.6 0 0 1-.462.181m-2.684 0a.65.65 0 0 1-.482-.181q-.171-.18-.171-.521 0-.32.171-.511.17-.19.482-.191.292 0 .462.181.181.18.181.521 0 .331-.181.521a.6.6 0 0 1-.462.181M404.478 133.434a.65.65 0 0 1-.482-.181q-.171-.18-.171-.521 0-.321.171-.512.171-.19.482-.19.292 0 .463.18.18.18.181.522 0 .33-.181.521a.6.6 0 0 1-.463.181m-2.683 0a.66.66 0 0 1-.483-.181q-.171-.18-.171-.521 0-.321.171-.512.171-.19.483-.19.291 0 .462.18.181.18.181.522 0 .33-.181.521a.6.6 0 0 1-.462.181M411.516 133.434a.66.66 0 0 1-.483-.181q-.17-.18-.17-.521 0-.321.17-.512.171-.19.483-.19.291 0 .462.18.181.18.181.522 0 .33-.181.521a.6.6 0 0 1-.462.181m-2.684 0a.65.65 0 0 1-.482-.181q-.171-.18-.171-.521 0-.321.171-.512.171-.19.482-.19.292 0 .463.18.18.18.181.522 0 .33-.181.521a.6.6 0 0 1-.463.181M415.87 133.434a.66.66 0 0 1-.483-.181q-.17-.18-.17-.521 0-.321.17-.512.171-.19.483-.19.291 0 .462.18.181.18.181.522 0 .33-.181.521a.6.6 0 0 1-.462.181m2.683 2.506a.65.65 0 0 1-.482-.18q-.171-.18-.171-.522 0-.32.171-.511.171-.19.482-.19.292 0 .463.18.18.18.181.521 0 .332-.181.512a.59.59 0 0 1-.463.19M425.591 135.94a.65.65 0 0 1-.482-.18q-.171-.18-.171-.522 0-.32.171-.511.17-.19.482-.19.291 0 .462.18.181.18.181.521 0 .332-.181.512a.59.59 0 0 1-.462.19m-2.684 0a.65.65 0 0 1-.482-.18q-.171-.18-.171-.522 0-.32.171-.511.171-.19.482-.19.292 0 .463.18.18.18.181.521 0 .332-.181.512a.59.59 0 0 1-.463.19M432.629 135.94a.66.66 0 0 1-.483-.18q-.171-.18-.171-.522 0-.32.171-.511.171-.19.483-.19.291 0 .462.18.18.18.181.521 0 .332-.181.512a.59.59 0 0 1-.462.19m-2.684 0a.65.65 0 0 1-.482-.18q-.171-.18-.171-.522 0-.32.171-.511.17-.19.482-.19.291 0 .462.18.181.18.181.521 0 .332-.181.512a.59.59 0 0 1-.462.19M137.051 144.463a.66.66 0 0 1-.483-.18q-.171-.18-.171-.521 0-.321.171-.512.171-.19.483-.19.291 0 .462.18.181.18.181.522 0 .33-.181.521a.6.6 0 0 1-.462.18m-2.684 0a.65.65 0 0 1-.482-.18q-.171-.18-.171-.521 0-.321.171-.512.17-.19.482-.19.292 0 .462.18.181.18.181.522 0 .33-.181.521a.6.6 0 0 1-.462.18M144.088 141.957a.65.65 0 0 1-.482-.181q-.171-.18-.171-.521 0-.321.171-.512.171-.19.482-.19.292 0 .463.18.18.18.181.522 0 .33-.181.521a.6.6 0 0 1-.463.181m-2.683 2.506a.66.66 0 0 1-.483-.18q-.171-.18-.171-.521 0-.321.171-.512.171-.19.483-.19.291 0 .462.18.181.18.181.522 0 .33-.181.521a.6.6 0 0 1-.462.18M151.126 141.957a.66.66 0 0 1-.483-.181q-.17-.18-.17-.521 0-.321.17-.512.171-.19.483-.19.291 0 .462.18.181.18.181.522 0 .33-.181.521a.6.6 0 0 1-.462.181m-2.684 0a.65.65 0 0 1-.482-.181q-.171-.18-.171-.521 0-.321.171-.512.171-.19.482-.19.292 0 .463.18.18.18.18.522 0 .33-.18.521a.6.6 0 0 1-.463.181M158.163 141.957a.65.65 0 0 1-.482-.181q-.171-.18-.171-.521 0-.321.171-.512.171-.19.482-.19.292 0 .463.18.18.18.181.522 0 .33-.181.521a.6.6 0 0 1-.463.181m-2.683 0a.66.66 0 0 1-.483-.181q-.171-.18-.171-.521 0-.321.171-.512.171-.19.483-.19.291 0 .462.18.181.18.181.522 0 .33-.181.521a.6.6 0 0 1-.462.181M165.201 139.45a.65.65 0 0 1-.482-.181q-.171-.18-.171-.521 0-.32.171-.511.17-.19.482-.191.291 0 .462.181.181.18.181.521 0 .331-.181.521a.6.6 0 0 1-.462.181m-2.684 0a.65.65 0 0 1-.482-.181q-.171-.18-.171-.521 0-.32.171-.511.171-.19.482-.191.292 0 .463.181.18.18.181.521 0 .331-.181.521a.6.6 0 0 1-.463.181M172.239 139.45a.65.65 0 0 1-.483-.181q-.171-.18-.171-.521 0-.32.171-.511.171-.19.483-.191.291 0 .462.181.18.18.181.521 0 .331-.181.521a.6.6 0 0 1-.462.181m-2.684 0a.65.65 0 0 1-.483-.181q-.17-.18-.17-.521 0-.32.17-.511.171-.19.483-.191.291 0 .462.181.181.18.181.521 0 .331-.181.521a.6.6 0 0 1-.462.181M179.276 139.45a.65.65 0 0 1-.482-.181q-.171-.18-.171-.521 0-.32.171-.511.17-.19.482-.191.292 0 .462.181.181.18.181.521 0 .331-.181.521a.6.6 0 0 1-.462.181m-2.683 0a.65.65 0 0 1-.483-.181q-.171-.18-.171-.521 0-.32.171-.511.171-.19.483-.191.291 0 .462.181.18.18.181.521 0 .331-.181.521a.6.6 0 0 1-.462.181M439.666 139.45a.65.65 0 0 1-.482-.181q-.171-.18-.171-.521 0-.32.171-.511.17-.19.482-.191.292 0 .462.181.181.18.181.521 0 .331-.181.521a.6.6 0 0 1-.462.181m-2.683 0a.65.65 0 0 1-.483-.181q-.171-.18-.171-.521 0-.32.171-.511.171-.19.483-.191.291 0 .462.181.18.18.181.521 0 .331-.181.521a.6.6 0 0 1-.462.181M446.704 139.45a.65.65 0 0 1-.483-.181q-.171-.18-.171-.521 0-.32.171-.511.171-.19.483-.191.291 0 .462.181.181.18.181.521 0 .331-.181.521a.6.6 0 0 1-.462.181m-2.684 0a.65.65 0 0 1-.482-.181q-.171-.18-.171-.521 0-.32.171-.511.17-.19.482-.191.292 0 .462.181.181.18.181.521 0 .331-.181.521a.6.6 0 0 1-.462.181M451.058 139.45a.65.65 0 0 1-.483-.181q-.171-.18-.171-.521 0-.32.171-.511.171-.19.483-.191.291 0 .462.181.181.18.181.521 0 .331-.181.521a.6.6 0 0 1-.462.181m2.683 2.507a.65.65 0 0 1-.482-.181q-.171-.18-.171-.521 0-.321.171-.512.171-.19.482-.19.292 0 .463.18.18.18.181.522 0 .33-.181.521a.6.6 0 0 1-.463.181M460.779 141.957a.66.66 0 0 1-.483-.181q-.17-.18-.17-.521 0-.321.17-.512.171-.19.483-.19.291 0 .462.18.181.18.181.522 0 .33-.181.521a.6.6 0 0 1-.462.181m-2.684 0a.65.65 0 0 1-.482-.181q-.171-.18-.171-.521 0-.321.171-.512.171-.19.482-.19.292 0 .463.18.18.18.181.522 0 .33-.181.521a.6.6 0 0 1-.463.181M467.816 144.463a.65.65 0 0 1-.482-.18q-.171-.18-.171-.521 0-.321.171-.512.171-.19.482-.19.292 0 .463.18.18.18.181.522 0 .33-.181.521a.6.6 0 0 1-.463.18m-2.683 0a.66.66 0 0 1-.483-.18q-.17-.18-.17-.521 0-.321.17-.512.171-.19.483-.19.291 0 .462.18.181.18.181.522 0 .33-.181.521a.6.6 0 0 1-.462.18M472.17 144.463a.65.65 0 0 1-.482-.18q-.171-.18-.171-.521 0-.321.171-.512.171-.19.482-.19.292 0 .463.18.18.18.181.522 0 .33-.181.521a.6.6 0 0 1-.463.18m2.684 2.507a.65.65 0 0 1-.482-.18q-.171-.18-.171-.522 0-.32.171-.511.17-.19.482-.191.291 0 .462.181.181.18.181.521 0 .331-.181.512a.59.59 0 0 1-.462.19M481.892 146.97a.66.66 0 0 1-.483-.18q-.171-.18-.171-.522 0-.32.171-.511.171-.19.483-.191.291 0 .462.181.18.18.181.521 0 .331-.181.512a.59.59 0 0 1-.462.19m-2.684 0a.65.65 0 0 1-.482-.18q-.171-.18-.171-.522 0-.32.171-.511.17-.19.482-.191.291 0 .462.181.181.18.181.521 0 .331-.181.512a.59.59 0 0 1-.462.19M671.906 146.97a.66.66 0 0 1-.483-.18q-.17-.18-.17-.522 0-.32.17-.511.171-.19.483-.191.291 0 .462.181.181.18.181.521 0 .331-.181.512a.59.59 0 0 1-.462.19m-2.684 0a.65.65 0 0 1-.482-.18q-.171-.18-.171-.522 0-.32.171-.511.171-.19.482-.191.292 0 .463.181.18.18.181.521 0 .331-.181.512a.59.59 0 0 1-.463.19M678.943 146.97a.65.65 0 0 1-.482-.18q-.171-.18-.171-.522 0-.32.171-.511.171-.19.482-.191.292 0 .463.181.18.18.181.521 0 .331-.181.512a.59.59 0 0 1-.463.19m-2.683 0a.66.66 0 0 1-.483-.18q-.17-.18-.17-.522 0-.32.17-.511.171-.19.483-.191.291 0 .462.181.181.18.181.521 0 .331-.181.512a.59.59 0 0 1-.462.19M685.981 144.463a.65.65 0 0 1-.482-.18q-.171-.18-.171-.521 0-.321.171-.512.17-.19.482-.19.291 0 .462.18.181.18.181.522 0 .33-.181.521a.6.6 0 0 1-.462.18m-2.684 0a.65.65 0 0 1-.482-.18q-.171-.18-.171-.521 0-.321.171-.512.171-.19.482-.19.292 0 .463.18.18.18.181.522 0 .33-.181.521a.6.6 0 0 1-.463.18M693.019 144.463a.66.66 0 0 1-.483-.18q-.171-.18-.171-.521 0-.321.171-.512.171-.19.483-.19.291 0 .462.18.181.18.181.522 0 .33-.181.521a.6.6 0 0 1-.462.18m-2.684 0a.65.65 0 0 1-.482-.18q-.171-.18-.171-.521 0-.321.171-.512.17-.19.482-.19.291 0 .462.18.181.18.181.522 0 .33-.181.521a.6.6 0 0 1-.462.18M700.056 141.957a.65.65 0 0 1-.482-.181q-.171-.18-.171-.521 0-.321.171-.512.17-.19.482-.19a.6.6 0 0 1 .463.18q.18.18.18.522 0 .33-.18.521a.6.6 0 0 1-.463.181m-2.683 2.506a.66.66 0 0 1-.483-.18q-.171-.18-.171-.521 0-.321.171-.512.171-.19.483-.19.291 0 .462.18.181.18.181.522 0 .33-.181.521a.6.6 0 0 1-.462.18M707.094 141.957a.66.66 0 0 1-.483-.181q-.171-.18-.171-.521 0-.321.171-.512.171-.19.483-.19.291 0 .462.18.181.18.181.522 0 .33-.181.521a.6.6 0 0 1-.462.181m-2.684 0a.65.65 0 0 1-.482-.181q-.171-.18-.171-.521 0-.321.171-.512.17-.19.482-.19.292 0 .462.18.181.18.181.522 0 .33-.181.521a.6.6 0 0 1-.462.181M714.131 141.957a.65.65 0 0 1-.482-.181q-.171-.18-.171-.521 0-.321.171-.512.171-.19.482-.19.292 0 .463.18.18.18.181.522 0 .33-.181.521a.6.6 0 0 1-.463.181m-2.683 0a.66.66 0 0 1-.483-.181q-.171-.18-.171-.521 0-.321.171-.512.171-.19.483-.19.291 0 .462.18.181.18.181.522 0 .33-.181.521a.6.6 0 0 1-.462.181M721.169 141.957a.66.66 0 0 1-.483-.181q-.17-.18-.17-.521 0-.321.17-.512.171-.19.483-.19.291 0 .462.18.181.18.181.522 0 .33-.181.521a.6.6 0 0 1-.462.181m-2.684 0a.65.65 0 0 1-.482-.181q-.171-.18-.171-.521 0-.321.171-.512.171-.19.482-.19.292 0 .463.18.18.18.18.522 0 .33-.18.521a.6.6 0 0 1-.463.181M728.206 139.45a.65.65 0 0 1-.482-.181q-.171-.18-.171-.521 0-.32.171-.511.171-.19.482-.191.292 0 .463.181.18.18.181.521 0 .331-.181.521a.6.6 0 0 1-.463.181m-2.683 0a.65.65 0 0 1-.483-.181q-.17-.18-.17-.521 0-.32.17-.511.171-.19.483-.191.291 0 .462.181.181.18.181.521 0 .331-.181.521a.6.6 0 0 1-.462.181M735.244 139.45a.65.65 0 0 1-.482-.181q-.171-.18-.171-.521 0-.32.171-.511.17-.19.482-.191.291 0 .462.181.181.18.181.521 0 .331-.181.521a.6.6 0 0 1-.462.181m-2.684 0a.65.65 0 0 1-.482-.181q-.171-.18-.171-.521 0-.32.171-.511.171-.19.482-.191.292 0 .463.181.18.18.181.521 0 .331-.181.521a.6.6 0 0 1-.463.181M742.282 139.45a.65.65 0 0 1-.483-.181q-.171-.18-.171-.521 0-.32.171-.511.171-.19.483-.191.291 0 .462.181.181.18.181.521 0 .331-.181.521a.6.6 0 0 1-.462.181m-2.684 0a.65.65 0 0 1-.482-.181q-.171-.18-.171-.521 0-.32.171-.511.17-.19.482-.191.291 0 .462.181.181.18.181.521 0 .331-.181.521a.6.6 0 0 1-.462.181M749.319 139.45a.65.65 0 0 1-.482-.181q-.171-.18-.171-.521 0-.32.171-.511.17-.19.482-.191.292 0 .463.181.18.18.18.521 0 .331-.18.521a.6.6 0 0 1-.463.181m-2.683 0a.65.65 0 0 1-.483-.181q-.171-.18-.171-.521 0-.32.171-.511.171-.19.483-.191.291 0 .462.181.18.18.181.521 0 .331-.181.521a.6.6 0 0 1-.462.181M753.673 139.45a.65.65 0 0 1-.482-.181q-.171-.18-.171-.521 0-.32.171-.511.17-.19.482-.191.292 0 .462.181.181.18.181.521 0 .331-.181.521a.6.6 0 0 1-.462.181m2.684 2.507a.66.66 0 0 1-.483-.181q-.171-.18-.171-.521 0-.321.171-.512.171-.19.483-.19.291 0 .462.18.181.18.181.522 0 .33-.181.521a.6.6 0 0 1-.462.181M3.337 158a.65.65 0 0 1-.483-.18q-.17-.181-.17-.522 0-.32.17-.511.171-.19.483-.191.291 0 .462.181.18.18.181.521 0 .331-.18.511a.59.59 0 0 1-.463.191m-2.684 0a.65.65 0 0 1-.482-.18Q0 157.639 0 157.298q0-.32.17-.511.173-.19.483-.191.292 0 .463.181.18.18.18.521 0 .331-.18.511a.59.59 0 0 1-.463.191M10.375 158a.65.65 0 0 1-.483-.18q-.17-.181-.17-.522 0-.32.17-.511.171-.19.482-.191.292 0 .463.181.18.18.18.521 0 .331-.18.511a.59.59 0 0 1-.463.191m-2.684 0a.65.65 0 0 1-.483-.18q-.17-.181-.17-.522 0-.32.17-.511.171-.19.483-.191.291 0 .462.181.18.18.181.521 0 .331-.18.511a.59.59 0 0 1-.463.191M17.412 158a.65.65 0 0 1-.482-.18q-.171-.181-.171-.522 0-.32.17-.511.172-.19.483-.191.292 0 .462.181.181.18.181.521 0 .331-.18.511a.59.59 0 0 1-.463.191m-2.684 0a.65.65 0 0 1-.482-.18q-.17-.181-.17-.522 0-.32.17-.511.171-.19.482-.191.292 0 .463.181.18.18.18.521 0 .331-.18.511a.59.59 0 0 1-.463.191M24.45 158a.65.65 0 0 1-.483-.18q-.17-.181-.17-.522 0-.32.17-.511.171-.19.483-.191.291 0 .462.181.18.18.18.521 0 .331-.18.511a.59.59 0 0 1-.462.191m-2.684 0a.65.65 0 0 1-.482-.18q-.171-.181-.171-.522 0-.32.17-.511.171-.19.483-.191.291 0 .462.181.181.18.181.521 0 .331-.18.511a.59.59 0 0 1-.463.191M31.487 158a.65.65 0 0 1-.482-.18q-.171-.181-.171-.522 0-.32.17-.511.172-.19.483-.191.292 0 .463.181.18.18.18.521 0 .331-.18.511a.59.59 0 0 1-.463.191m-2.683 0a.65.65 0 0 1-.483-.18q-.17-.181-.17-.522 0-.32.17-.511.171-.19.483-.191.291 0 .462.181.18.18.18.521 0 .331-.18.511a.59.59 0 0 1-.462.191M38.525 155.493a.65.65 0 0 1-.483-.18q-.17-.18-.17-.522 0-.32.17-.511.171-.19.483-.191.291 0 .462.181.18.18.181.521 0 .332-.18.522a.6.6 0 0 1-.463.18M45.562 155.493a.65.65 0 0 1-.482-.18q-.171-.18-.171-.522 0-.32.17-.511.172-.19.483-.191.292 0 .463.181.18.18.18.521 0 .332-.18.522a.6.6 0 0 1-.463.18m-2.683 0a.65.65 0 0 1-.483-.18q-.17-.18-.17-.522 0-.32.17-.511.171-.19.483-.191.291 0 .462.181.18.18.181.521 0 .332-.18.522a.6.6 0 0 1-.463.18M52.6 155.493a.65.65 0 0 1-.483-.18q-.17-.18-.17-.522 0-.32.17-.511.171-.19.483-.191.291 0 .462.181.18.18.181.521 0 .332-.18.522a.6.6 0 0 1-.463.18m-2.684 0a.65.65 0 0 1-.482-.18q-.171-.18-.171-.522 0-.32.17-.511.173-.19.483-.191.292 0 .463.181.18.18.18.521 0 .332-.18.522a.6.6 0 0 1-.463.18M59.637 155.493a.65.65 0 0 1-.482-.18q-.17-.18-.17-.522 0-.32.17-.511.171-.19.482-.191.292 0 .463.181.18.18.18.521 0 .332-.18.522a.6.6 0 0 1-.463.18m-2.683 0a.65.65 0 0 1-.483-.18q-.17-.18-.17-.522 0-.32.17-.511.171-.19.483-.191.291 0 .462.181.18.18.181.521 0 .332-.18.522a.6.6 0 0 1-.463.18M66.675 155.493a.65.65 0 0 1-.482-.18q-.171-.18-.171-.522 0-.32.17-.511.172-.19.483-.191.291 0 .462.181.181.18.181.521 0 .332-.18.522a.6.6 0 0 1-.463.18m-2.684 0a.65.65 0 0 1-.482-.18q-.17-.18-.17-.522 0-.32.17-.511.171-.19.482-.191.292 0 .463.181.18.18.18.521 0 .332-.18.522a.6.6 0 0 1-.463.18M73.713 155.493a.65.65 0 0 1-.483-.18q-.17-.18-.17-.522 0-.32.17-.511.171-.19.483-.191.291 0 .462.181.18.18.18.521 0 .332-.18.522a.6.6 0 0 1-.462.18m-2.684 0a.65.65 0 0 1-.482-.18q-.171-.18-.171-.522 0-.32.17-.511.171-.19.483-.191.291 0 .462.181.18.18.181.521 0 .332-.18.522a.6.6 0 0 1-.463.18M80.75 152.986a.65.65 0 0 1-.482-.18q-.171-.18-.171-.521 0-.321.17-.512.172-.19.483-.19.292 0 .463.18.18.18.18.522 0 .33-.18.521a.6.6 0 0 1-.463.18m-2.683 2.507a.65.65 0 0 1-.483-.18q-.17-.18-.17-.522 0-.32.17-.511.171-.19.483-.191.291 0 .462.181.18.18.18.521 0 .332-.18.522a.6.6 0 0 1-.462.18M87.788 152.986a.65.65 0 0 1-.483-.18q-.17-.18-.17-.521 0-.321.17-.512.171-.19.483-.19.291 0 .462.18.18.18.181.522 0 .33-.181.521a.6.6 0 0 1-.462.18m-2.684 0a.65.65 0 0 1-.482-.18q-.171-.18-.171-.521 0-.321.17-.512.172-.19.483-.19.292 0 .463.18.18.18.18.522 0 .33-.18.521a.6.6 0 0 1-.463.18M94.825 152.986a.65.65 0 0 1-.482-.18q-.171-.18-.171-.521 0-.321.17-.512.172-.19.483-.19.292 0 .463.18.18.18.18.522 0 .33-.18.521a.6.6 0 0 1-.463.18m-2.683 0a.65.65 0 0 1-.483-.18q-.17-.18-.17-.521 0-.321.17-.512.171-.19.483-.19.291 0 .462.18.18.18.181.522 0 .33-.181.521a.6.6 0 0 1-.462.18M101.863 150.48a.65.65 0 0 1-.483-.181q-.17-.18-.17-.521 0-.321.17-.512.171-.19.483-.19.291 0 .462.18.181.18.181.522 0 .33-.181.521a.6.6 0 0 1-.462.181m-2.684 2.506a.65.65 0 0 1-.482-.18q-.171-.18-.171-.521 0-.321.17-.512.172-.19.483-.19.292 0 .463.18.18.18.18.522 0 .33-.18.521a.6.6 0 0 1-.463.18M108.9 150.48a.65.65 0 0 1-.482-.181q-.171-.18-.171-.521 0-.321.171-.512.171-.19.482-.19.292 0 .463.18.18.18.181.522 0 .33-.181.521a.6.6 0 0 1-.463.181m-2.683 0a.65.65 0 0 1-.483-.181q-.17-.18-.17-.521 0-.321.17-.512.171-.19.483-.19.291 0 .462.18.181.18.181.522 0 .33-.181.521a.6.6 0 0 1-.462.181M488.929 150.48a.65.65 0 0 1-.482-.181q-.171-.18-.171-.521 0-.321.171-.512.17-.19.482-.19.292 0 .462.18.181.18.181.522 0 .33-.181.521a.6.6 0 0 1-.462.181m-2.683 0a.65.65 0 0 1-.483-.181q-.171-.18-.171-.521 0-.321.171-.512.171-.19.483-.19.291 0 .462.18.18.18.181.522 0 .33-.181.521a.6.6 0 0 1-.462.181M495.967 150.48a.65.65 0 0 1-.483-.181q-.171-.18-.171-.521 0-.321.171-.512.171-.19.483-.19.291 0 .462.18.181.18.181.522 0 .33-.181.521a.6.6 0 0 1-.462.181m-2.684 0a.65.65 0 0 1-.482-.181q-.171-.18-.171-.521 0-.321.171-.512.17-.19.482-.19.292 0 .462.18.181.18.181.522 0 .33-.181.521a.6.6 0 0 1-.462.181M503.004 152.986a.65.65 0 0 1-.482-.18q-.171-.18-.171-.521 0-.321.171-.512.171-.19.482-.19.292 0 .463.18.18.18.181.522 0 .33-.181.521a.6.6 0 0 1-.463.18m-2.683 0a.66.66 0 0 1-.483-.18q-.171-.18-.171-.521 0-.321.171-.512.171-.19.483-.19.291 0 .462.18.181.18.181.522 0 .33-.181.521a.6.6 0 0 1-.462.18M510.042 152.986a.66.66 0 0 1-.483-.18q-.171-.18-.171-.521 0-.321.171-.512.171-.19.483-.19.291 0 .462.18.181.18.181.522 0 .33-.181.521a.6.6 0 0 1-.462.18m-2.684 0a.65.65 0 0 1-.482-.18q-.171-.18-.171-.521 0-.321.171-.512.171-.19.482-.19.292 0 .463.18.18.18.18.522 0 .33-.18.521a.6.6 0 0 1-.463.18M514.396 152.986a.66.66 0 0 1-.483-.18q-.17-.18-.17-.521 0-.321.17-.512.171-.19.483-.19.291 0 .462.18.181.18.181.522 0 .33-.181.521a.6.6 0 0 1-.462.18m2.683 2.507a.65.65 0 0 1-.482-.18q-.171-.18-.171-.522 0-.32.171-.511.171-.19.482-.191.292 0 .463.181.18.18.181.521 0 .332-.181.522a.6.6 0 0 1-.463.18M524.117 155.493a.65.65 0 0 1-.482-.18q-.171-.18-.171-.522 0-.32.171-.511.17-.19.482-.191.291 0 .462.181.181.18.181.521 0 .332-.181.522a.6.6 0 0 1-.462.18m-2.684 0a.65.65 0 0 1-.482-.18q-.171-.18-.171-.522 0-.32.171-.511.171-.19.482-.191.292 0 .463.181.18.18.181.521 0 .332-.181.522a.6.6 0 0 1-.463.18M531.155 155.493a.65.65 0 0 1-.483-.18q-.171-.18-.171-.522 0-.32.171-.511.171-.19.483-.191.291 0 .462.181.181.18.181.521 0 .332-.181.522a.6.6 0 0 1-.462.18m-2.684 0a.66.66 0 0 1-.483-.18q-.17-.18-.17-.522 0-.32.17-.511.171-.19.483-.191.291 0 .462.181.181.18.181.521 0 .332-.181.522a.6.6 0 0 1-.462.18M538.192 155.493a.65.65 0 0 1-.482-.18q-.171-.18-.171-.522 0-.32.171-.511.17-.19.482-.191.292 0 .462.181.181.18.181.521 0 .332-.181.522a.6.6 0 0 1-.462.18m-2.683 0a.65.65 0 0 1-.483-.18q-.171-.18-.171-.522 0-.32.171-.511.171-.19.483-.191.291 0 .462.181.18.18.181.521 0 .332-.181.522a.6.6 0 0 1-.462.18M542.546 155.493a.65.65 0 0 1-.482-.18q-.171-.18-.171-.522 0-.32.171-.511.17-.19.482-.191.291 0 .462.181.181.18.181.521 0 .332-.181.522a.6.6 0 0 1-.462.18M545.23 158a.66.66 0 0 1-.483-.18q-.171-.181-.171-.522 0-.32.171-.511.171-.19.483-.191.291 0 .462.181.181.18.181.521 0 .331-.181.511a.59.59 0 0 1-.462.191M552.267 158a.65.65 0 0 1-.482-.18q-.171-.181-.171-.522 0-.32.171-.511.171-.19.482-.191.292 0 .463.181.18.18.18.521 0 .331-.18.511a.59.59 0 0 1-.463.191m-2.683 0a.66.66 0 0 1-.483-.18q-.171-.181-.171-.522 0-.32.171-.511.171-.19.483-.191.291 0 .462.181.181.18.181.521 0 .331-.181.511a.59.59 0 0 1-.462.191M559.305 158a.66.66 0 0 1-.483-.18q-.171-.181-.171-.522 0-.32.171-.511.171-.19.483-.191.291 0 .462.181.181.18.181.521 0 .331-.181.511a.59.59 0 0 1-.462.191m-2.684 0a.65.65 0 0 1-.482-.18q-.171-.181-.171-.522 0-.32.171-.511.171-.19.482-.191.292 0 .463.181.18.18.18.521 0 .331-.18.511a.59.59 0 0 1-.463.191M566.342 158a.65.65 0 0 1-.482-.18q-.171-.181-.171-.522 0-.32.171-.511.171-.19.482-.191.292 0 .463.181.18.18.181.521 0 .331-.181.511a.59.59 0 0 1-.463.191m-2.683 0a.66.66 0 0 1-.483-.18q-.171-.181-.171-.522 0-.32.171-.511.171-.19.483-.191.291 0 .462.181.181.18.181.521 0 .331-.181.511a.59.59 0 0 1-.462.191M573.38 155.493a.66.66 0 0 1-.483-.18q-.17-.18-.17-.522 0-.32.17-.511.171-.19.483-.191.291 0 .462.181.181.18.181.521 0 .332-.181.522a.6.6 0 0 1-.462.18M570.696 158a.65.65 0 0 1-.482-.18q-.171-.181-.171-.522 0-.32.171-.511.171-.19.482-.191.292 0 .463.181.18.18.181.521 0 .331-.181.511a.59.59 0 0 1-.463.191M580.418 155.493a.65.65 0 0 1-.483-.18q-.171-.18-.171-.522 0-.32.171-.511.171-.19.483-.191.291 0 .462.181.18.18.181.521 0 .332-.181.522a.6.6 0 0 1-.462.18m-2.684 0a.66.66 0 0 1-.483-.18q-.17-.18-.17-.522 0-.32.17-.511.171-.19.483-.191.291 0 .462.181.181.18.181.521 0 .332-.181.522a.6.6 0 0 1-.462.18M587.455 155.493a.65.65 0 0 1-.482-.18q-.171-.18-.171-.522 0-.32.171-.511.17-.19.482-.191.292 0 .462.181.181.18.181.521 0 .332-.181.522a.6.6 0 0 1-.462.18m-2.683 0a.65.65 0 0 1-.483-.18q-.171-.18-.171-.522 0-.32.171-.511.171-.19.483-.191.291 0 .462.181.18.18.181.521 0 .332-.181.522a.6.6 0 0 1-.462.18M594.493 155.493a.66.66 0 0 1-.483-.18q-.171-.18-.171-.522 0-.32.171-.511.171-.19.483-.191.291 0 .462.181.181.18.181.521 0 .332-.181.522a.6.6 0 0 1-.462.18m-2.684 0a.65.65 0 0 1-.482-.18q-.171-.18-.171-.522 0-.32.171-.511.17-.19.482-.191.291 0 .462.181.181.18.181.521 0 .332-.181.522a.6.6 0 0 1-.462.18M598.847 155.493a.66.66 0 0 1-.483-.18q-.171-.18-.171-.522 0-.32.171-.511.171-.19.483-.191.291 0 .462.181.181.18.181.521 0 .332-.181.522a.6.6 0 0 1-.462.18M608.568 152.986a.66.66 0 0 1-.483-.18q-.171-.18-.171-.521 0-.321.171-.512.171-.19.483-.19.291 0 .462.18.181.18.181.522 0 .33-.181.521a.6.6 0 0 1-.462.18m-2.684 0a.65.65 0 0 1-.482-.18q-.171-.18-.171-.521 0-.321.171-.512.171-.19.482-.19.292 0 .463.18.18.18.18.522 0 .33-.18.521a.6.6 0 0 1-.463.18M615.605 152.986a.65.65 0 0 1-.482-.18q-.171-.18-.171-.521 0-.321.171-.512.171-.19.482-.19.292 0 .463.18.18.18.181.522 0 .33-.181.521a.6.6 0 0 1-.463.18m-2.683 0a.66.66 0 0 1-.483-.18q-.171-.18-.171-.521 0-.321.171-.512.171-.19.483-.19.291 0 .462.18.181.18.181.522 0 .33-.181.521a.6.6 0 0 1-.462.18M622.643 152.986a.66.66 0 0 1-.483-.18q-.17-.18-.17-.521 0-.321.17-.512.171-.19.483-.19.291 0 .462.18.181.18.181.522 0 .33-.181.521a.6.6 0 0 1-.462.18m-2.684 0a.65.65 0 0 1-.482-.18q-.171-.18-.171-.521 0-.321.171-.512.171-.19.482-.19.292 0 .463.18.18.18.181.522 0 .33-.181.521a.6.6 0 0 1-.463.18M629.681 152.986a.65.65 0 0 1-.483-.18q-.171-.18-.171-.521 0-.321.171-.512.171-.19.483-.19.291 0 .462.18.18.18.181.522 0 .33-.181.521a.6.6 0 0 1-.462.18m-2.684 0a.66.66 0 0 1-.483-.18q-.17-.18-.17-.521 0-.321.17-.512.171-.19.483-.19.291 0 .462.18.181.18.181.522 0 .33-.181.521a.6.6 0 0 1-.462.18M636.718 152.986a.65.65 0 0 1-.482-.18q-.171-.18-.171-.521 0-.321.171-.512.17-.19.482-.19.292 0 .462.18.181.18.181.522 0 .33-.181.521a.6.6 0 0 1-.462.18m-2.683 0a.65.65 0 0 1-.483-.18q-.171-.18-.171-.521 0-.321.171-.512.171-.19.483-.19.291 0 .462.18.18.18.181.522 0 .33-.181.521a.6.6 0 0 1-.462.18M643.756 152.986a.66.66 0 0 1-.483-.18q-.171-.18-.171-.521 0-.321.171-.512.171-.19.483-.19.291 0 .462.18.181.18.181.522 0 .33-.181.521a.6.6 0 0 1-.462.18m-2.684 0a.65.65 0 0 1-.482-.18q-.171-.18-.171-.521 0-.321.171-.512.17-.19.482-.19.291 0 .462.18.181.18.181.522 0 .33-.181.521a.6.6 0 0 1-.462.18M650.793 152.986a.65.65 0 0 1-.482-.18q-.171-.18-.171-.521 0-.321.171-.512.17-.19.482-.19a.6.6 0 0 1 .463.18q.18.18.18.522 0 .33-.18.521a.6.6 0 0 1-.463.18m-2.683 0a.66.66 0 0 1-.483-.18q-.171-.18-.171-.521 0-.321.171-.512.171-.19.483-.19.291 0 .462.18.181.18.181.522 0 .33-.181.521a.6.6 0 0 1-.462.18M657.831 150.48a.65.65 0 0 1-.483-.181q-.171-.18-.171-.521 0-.321.171-.512.171-.19.483-.19.291 0 .462.18.181.18.181.522 0 .33-.181.521a.6.6 0 0 1-.462.181m-2.684 0a.65.65 0 0 1-.482-.181q-.171-.18-.171-.521 0-.321.171-.512.17-.19.482-.19a.6.6 0 0 1 .463.18q.18.18.18.522 0 .33-.18.521a.6.6 0 0 1-.463.181M664.868 150.48a.65.65 0 0 1-.482-.181q-.171-.18-.171-.521 0-.321.171-.512.171-.19.482-.19.292 0 .463.18.18.18.181.522 0 .33-.181.521a.6.6 0 0 1-.463.181m-2.683 0a.65.65 0 0 1-.483-.181q-.171-.18-.171-.521 0-.321.171-.512.171-.19.483-.19.291 0 .462.18.181.18.181.522 0 .33-.181.521a.6.6 0 0 1-.462.181"/></g><defs><clipPath id="a"><path fill="#fff" d="M0 0h757v170H0z"/></clipPath></defs></svg>